<svg xmlns="http://www.w3.org/2000/svg" xmlns:xlink="http://www.w3.org/1999/xlink" width="600" height="400" viewBox="0 0 2400 1600">
<defs>
  <clipPath id="clip150">
    <rect x="0" y="0" width="2400" height="1600"></rect>
  </clipPath>
</defs>
<path clip-path="url(#clip150)" d="
M0 1600 L2400 1600 L2400 0 L0 0  Z
  " fill="#ffffff" fill-rule="evenodd" fill-opacity="1"></path>
<defs>
  <clipPath id="clip151">
    <rect x="480" y="0" width="1681" height="1600"></rect>
  </clipPath>
</defs>
<path clip-path="url(#clip150)" d="
M407.875 1423.18 L2352.76 1423.18 L2352.76 47.2441 L407.875 47.2441  Z
  " fill="#ffffff" fill-rule="evenodd" fill-opacity="1"></path>
<defs>
  <clipPath id="clip152">
    <rect x="407" y="47" width="1946" height="1377"></rect>
  </clipPath>
</defs>
<polyline clip-path="url(#clip152)" style="stroke:#000000; stroke-linecap:butt; stroke-linejoin:round; stroke-width:2; stroke-opacity:0.1; fill:none" points="
  462.918,1423.18 462.918,47.2441 
  "></polyline>
<polyline clip-path="url(#clip152)" style="stroke:#000000; stroke-linecap:butt; stroke-linejoin:round; stroke-width:2; stroke-opacity:0.1; fill:none" points="
  1002.56,1423.18 1002.56,47.2441 
  "></polyline>
<polyline clip-path="url(#clip152)" style="stroke:#000000; stroke-linecap:butt; stroke-linejoin:round; stroke-width:2; stroke-opacity:0.1; fill:none" points="
  1542.21,1423.18 1542.21,47.2441 
  "></polyline>
<polyline clip-path="url(#clip152)" style="stroke:#000000; stroke-linecap:butt; stroke-linejoin:round; stroke-width:2; stroke-opacity:0.1; fill:none" points="
  2081.85,1423.18 2081.85,47.2441 
  "></polyline>
<polyline clip-path="url(#clip150)" style="stroke:#000000; stroke-linecap:butt; stroke-linejoin:round; stroke-width:4; stroke-opacity:1; fill:none" points="
  407.875,1423.18 2352.76,1423.18 
  "></polyline>
<polyline clip-path="url(#clip150)" style="stroke:#000000; stroke-linecap:butt; stroke-linejoin:round; stroke-width:4; stroke-opacity:1; fill:none" points="
  462.918,1423.18 462.918,1404.28 
  "></polyline>
<polyline clip-path="url(#clip150)" style="stroke:#000000; stroke-linecap:butt; stroke-linejoin:round; stroke-width:4; stroke-opacity:1; fill:none" points="
  1002.56,1423.18 1002.56,1404.28 
  "></polyline>
<polyline clip-path="url(#clip150)" style="stroke:#000000; stroke-linecap:butt; stroke-linejoin:round; stroke-width:4; stroke-opacity:1; fill:none" points="
  1542.21,1423.18 1542.21,1404.28 
  "></polyline>
<polyline clip-path="url(#clip150)" style="stroke:#000000; stroke-linecap:butt; stroke-linejoin:round; stroke-width:4; stroke-opacity:1; fill:none" points="
  2081.85,1423.18 2081.85,1404.28 
  "></polyline>
<path clip-path="url(#clip150)" d="M462.918 1454.1 Q459.307 1454.1 457.479 1457.66 Q455.673 1461.2 455.673 1468.33 Q455.673 1475.44 457.479 1479.01 Q459.307 1482.55 462.918 1482.55 Q466.553 1482.55 468.358 1479.01 Q470.187 1475.44 470.187 1468.33 Q470.187 1461.2 468.358 1457.66 Q466.553 1454.1 462.918 1454.1 M462.918 1450.39 Q468.728 1450.39 471.784 1455 Q474.863 1459.58 474.863 1468.33 Q474.863 1477.06 471.784 1481.67 Q468.728 1486.25 462.918 1486.25 Q457.108 1486.25 454.029 1481.67 Q450.974 1477.06 450.974 1468.33 Q450.974 1459.58 454.029 1455 Q457.108 1450.39 462.918 1450.39 Z" fill="#000000" fill-rule="evenodd" fill-opacity="1"></path><path clip-path="url(#clip150)" d="M977.263 1451.02 L995.619 1451.02 L995.619 1454.96 L981.545 1454.96 L981.545 1463.43 Q982.564 1463.08 983.582 1462.92 Q984.601 1462.73 985.619 1462.73 Q991.406 1462.73 994.786 1465.9 Q998.165 1469.08 998.165 1474.49 Q998.165 1480.07 994.693 1483.17 Q991.221 1486.25 984.902 1486.25 Q982.726 1486.25 980.457 1485.88 Q978.212 1485.51 975.804 1484.77 L975.804 1480.07 Q977.888 1481.2 980.11 1481.76 Q982.332 1482.32 984.809 1482.32 Q988.814 1482.32 991.152 1480.21 Q993.49 1478.1 993.49 1474.49 Q993.49 1470.88 991.152 1468.77 Q988.814 1466.67 984.809 1466.67 Q982.934 1466.67 981.059 1467.08 Q979.207 1467.5 977.263 1468.38 L977.263 1451.02 Z" fill="#000000" fill-rule="evenodd" fill-opacity="1"></path><path clip-path="url(#clip150)" d="M1017.38 1454.1 Q1013.77 1454.1 1011.94 1457.66 Q1010.13 1461.2 1010.13 1468.33 Q1010.13 1475.44 1011.94 1479.01 Q1013.77 1482.55 1017.38 1482.55 Q1021.01 1482.55 1022.82 1479.01 Q1024.65 1475.44 1024.65 1468.33 Q1024.65 1461.2 1022.82 1457.66 Q1021.01 1454.1 1017.38 1454.1 M1017.38 1450.39 Q1023.19 1450.39 1026.24 1455 Q1029.32 1459.58 1029.32 1468.33 Q1029.32 1477.06 1026.24 1481.67 Q1023.19 1486.25 1017.38 1486.25 Q1011.57 1486.25 1008.49 1481.67 Q1005.43 1477.06 1005.43 1468.33 Q1005.43 1459.58 1008.49 1455 Q1011.57 1450.39 1017.38 1450.39 Z" fill="#000000" fill-rule="evenodd" fill-opacity="1"></path><path clip-path="url(#clip150)" d="M1501.82 1481.64 L1509.45 1481.64 L1509.45 1455.28 L1501.14 1456.95 L1501.14 1452.69 L1509.41 1451.02 L1514.08 1451.02 L1514.08 1481.64 L1521.72 1481.64 L1521.72 1485.58 L1501.82 1485.58 L1501.82 1481.64 Z" fill="#000000" fill-rule="evenodd" fill-opacity="1"></path><path clip-path="url(#clip150)" d="M1541.17 1454.1 Q1537.56 1454.1 1535.73 1457.66 Q1533.92 1461.2 1533.92 1468.33 Q1533.92 1475.44 1535.73 1479.01 Q1537.56 1482.55 1541.17 1482.55 Q1544.8 1482.55 1546.61 1479.01 Q1548.44 1475.44 1548.44 1468.33 Q1548.44 1461.2 1546.61 1457.66 Q1544.8 1454.1 1541.17 1454.1 M1541.17 1450.39 Q1546.98 1450.39 1550.03 1455 Q1553.11 1459.58 1553.11 1468.33 Q1553.11 1477.06 1550.03 1481.67 Q1546.98 1486.25 1541.17 1486.25 Q1535.36 1486.25 1532.28 1481.67 Q1529.22 1477.06 1529.22 1468.33 Q1529.22 1459.58 1532.28 1455 Q1535.36 1450.39 1541.17 1450.39 Z" fill="#000000" fill-rule="evenodd" fill-opacity="1"></path><path clip-path="url(#clip150)" d="M1571.33 1454.1 Q1567.72 1454.1 1565.89 1457.66 Q1564.08 1461.2 1564.08 1468.33 Q1564.08 1475.44 1565.89 1479.01 Q1567.72 1482.55 1571.33 1482.55 Q1574.96 1482.55 1576.77 1479.01 Q1578.6 1475.44 1578.6 1468.33 Q1578.6 1461.2 1576.77 1457.66 Q1574.96 1454.1 1571.33 1454.1 M1571.33 1450.39 Q1577.14 1450.39 1580.19 1455 Q1583.27 1459.58 1583.27 1468.33 Q1583.27 1477.06 1580.19 1481.67 Q1577.14 1486.25 1571.33 1486.25 Q1565.52 1486.25 1562.44 1481.67 Q1559.38 1477.06 1559.38 1468.33 Q1559.38 1459.58 1562.44 1455 Q1565.52 1450.39 1571.33 1450.39 Z" fill="#000000" fill-rule="evenodd" fill-opacity="1"></path><path clip-path="url(#clip150)" d="M2041.46 1481.64 L2049.1 1481.64 L2049.1 1455.28 L2040.79 1456.95 L2040.79 1452.69 L2049.05 1451.02 L2053.73 1451.02 L2053.73 1481.64 L2061.37 1481.64 L2061.37 1485.58 L2041.46 1485.58 L2041.46 1481.64 Z" fill="#000000" fill-rule="evenodd" fill-opacity="1"></path><path clip-path="url(#clip150)" d="M2070.86 1451.02 L2089.22 1451.02 L2089.22 1454.96 L2075.14 1454.96 L2075.14 1463.43 Q2076.16 1463.08 2077.18 1462.92 Q2078.2 1462.73 2079.22 1462.73 Q2085 1462.73 2088.38 1465.9 Q2091.76 1469.08 2091.76 1474.49 Q2091.76 1480.07 2088.29 1483.17 Q2084.82 1486.25 2078.5 1486.25 Q2076.32 1486.25 2074.05 1485.88 Q2071.81 1485.51 2069.4 1484.77 L2069.4 1480.07 Q2071.48 1481.2 2073.71 1481.76 Q2075.93 1482.32 2078.4 1482.32 Q2082.41 1482.32 2084.75 1480.21 Q2087.09 1478.1 2087.09 1474.49 Q2087.09 1470.88 2084.75 1468.77 Q2082.41 1466.67 2078.4 1466.67 Q2076.53 1466.67 2074.65 1467.08 Q2072.8 1467.5 2070.86 1468.38 L2070.86 1451.02 Z" fill="#000000" fill-rule="evenodd" fill-opacity="1"></path><path clip-path="url(#clip150)" d="M2110.97 1454.1 Q2107.36 1454.1 2105.53 1457.66 Q2103.73 1461.2 2103.73 1468.33 Q2103.73 1475.44 2105.53 1479.01 Q2107.36 1482.55 2110.97 1482.55 Q2114.61 1482.55 2116.41 1479.01 Q2118.24 1475.44 2118.24 1468.33 Q2118.24 1461.2 2116.41 1457.66 Q2114.61 1454.1 2110.97 1454.1 M2110.97 1450.39 Q2116.78 1450.39 2119.84 1455 Q2122.92 1459.58 2122.92 1468.33 Q2122.92 1477.06 2119.84 1481.67 Q2116.78 1486.25 2110.97 1486.25 Q2105.16 1486.25 2102.09 1481.67 Q2099.03 1477.06 2099.03 1468.33 Q2099.03 1459.58 2102.09 1455 Q2105.16 1450.39 2110.97 1450.39 Z" fill="#000000" fill-rule="evenodd" fill-opacity="1"></path><path clip-path="url(#clip150)" d="M1271.75 1537.81 L1271.75 1518.52 L1277.6 1518.52 L1277.6 1568.04 L1271.75 1568.04 L1271.75 1562.7 Q1269.9 1565.88 1267.07 1567.44 Q1264.27 1568.97 1260.32 1568.97 Q1253.86 1568.97 1249.79 1563.81 Q1245.74 1558.65 1245.74 1550.25 Q1245.74 1541.85 1249.79 1536.69 Q1253.86 1531.54 1260.32 1531.54 Q1264.27 1531.54 1267.07 1533.1 Q1269.9 1534.62 1271.75 1537.81 M1251.79 1550.25 Q1251.79 1556.71 1254.43 1560.4 Q1257.11 1564.07 1261.75 1564.07 Q1266.4 1564.07 1269.07 1560.4 Q1271.75 1556.71 1271.75 1550.25 Q1271.75 1543.79 1269.07 1540.13 Q1266.4 1536.44 1261.75 1536.44 Q1257.11 1536.44 1254.43 1540.13 Q1251.79 1543.79 1251.79 1550.25 Z" fill="#000000" fill-rule="evenodd" fill-opacity="1"></path><path clip-path="url(#clip150)" d="M1289.67 1532.4 L1295.52 1532.4 L1295.52 1568.04 L1289.67 1568.04 L1289.67 1532.4 M1289.67 1518.52 L1295.52 1518.52 L1295.52 1525.93 L1289.67 1525.93 L1289.67 1518.52 Z" fill="#000000" fill-rule="evenodd" fill-opacity="1"></path><path clip-path="url(#clip150)" d="M1330.5 1533.45 L1330.5 1538.98 Q1328.02 1537.71 1325.35 1537.07 Q1322.67 1536.44 1319.81 1536.44 Q1315.45 1536.44 1313.25 1537.77 Q1311.09 1539.11 1311.09 1541.79 Q1311.09 1543.82 1312.65 1545 Q1314.21 1546.15 1318.92 1547.2 L1320.92 1547.64 Q1327.16 1548.98 1329.77 1551.43 Q1332.41 1553.85 1332.41 1558.21 Q1332.41 1563.17 1328.47 1566.07 Q1324.55 1568.97 1317.68 1568.97 Q1314.81 1568.97 1311.69 1568.39 Q1308.61 1567.85 1305.17 1566.74 L1305.17 1560.69 Q1308.41 1562.38 1311.57 1563.24 Q1314.72 1564.07 1317.8 1564.07 Q1321.94 1564.07 1324.17 1562.66 Q1326.4 1561.23 1326.4 1558.65 Q1326.4 1556.27 1324.77 1554.99 Q1323.18 1553.72 1317.74 1552.54 L1315.7 1552.07 Q1310.26 1550.92 1307.84 1548.56 Q1305.42 1546.18 1305.42 1542.04 Q1305.42 1537.01 1308.99 1534.27 Q1312.55 1531.54 1319.11 1531.54 Q1322.36 1531.54 1325.22 1532.01 Q1328.08 1532.49 1330.5 1533.45 Z" fill="#000000" fill-rule="evenodd" fill-opacity="1"></path><path clip-path="url(#clip150)" d="M1347.53 1522.27 L1347.53 1532.4 L1359.59 1532.4 L1359.59 1536.95 L1347.53 1536.95 L1347.53 1556.3 Q1347.53 1560.66 1348.71 1561.9 Q1349.92 1563.14 1353.58 1563.14 L1359.59 1563.14 L1359.59 1568.04 L1353.58 1568.04 Q1346.8 1568.04 1344.22 1565.53 Q1341.64 1562.98 1341.64 1556.3 L1341.64 1536.95 L1337.35 1536.95 L1337.35 1532.4 L1341.64 1532.4 L1341.64 1522.27 L1347.53 1522.27 Z" fill="#000000" fill-rule="evenodd" fill-opacity="1"></path><path clip-path="url(#clip150)" d="M1383.5 1550.12 Q1376.4 1550.12 1373.66 1551.75 Q1370.93 1553.37 1370.93 1557.29 Q1370.93 1560.4 1372.96 1562.25 Q1375.03 1564.07 1378.56 1564.07 Q1383.43 1564.07 1386.36 1560.63 Q1389.32 1557.16 1389.32 1551.43 L1389.32 1550.12 L1383.5 1550.12 M1395.18 1547.71 L1395.18 1568.04 L1389.32 1568.04 L1389.32 1562.63 Q1387.32 1565.88 1384.33 1567.44 Q1381.33 1568.97 1377.01 1568.97 Q1371.53 1568.97 1368.28 1565.91 Q1365.07 1562.82 1365.07 1557.67 Q1365.07 1551.65 1369.08 1548.6 Q1373.12 1545.54 1381.11 1545.54 L1389.32 1545.54 L1389.32 1544.97 Q1389.32 1540.93 1386.65 1538.73 Q1384.01 1536.5 1379.2 1536.5 Q1376.15 1536.5 1373.25 1537.23 Q1370.35 1537.97 1367.68 1539.43 L1367.68 1534.02 Q1370.89 1532.78 1373.92 1532.17 Q1376.94 1531.54 1379.81 1531.54 Q1387.54 1531.54 1391.36 1535.55 Q1395.18 1539.56 1395.18 1547.71 Z" fill="#000000" fill-rule="evenodd" fill-opacity="1"></path><path clip-path="url(#clip150)" d="M1436.87 1546.53 L1436.87 1568.04 L1431.02 1568.04 L1431.02 1546.72 Q1431.02 1541.66 1429.04 1539.14 Q1427.07 1536.63 1423.12 1536.63 Q1418.38 1536.63 1415.64 1539.65 Q1412.91 1542.68 1412.91 1547.9 L1412.91 1568.04 L1407.02 1568.04 L1407.02 1532.4 L1412.91 1532.4 L1412.91 1537.93 Q1415.01 1534.72 1417.84 1533.13 Q1420.71 1531.54 1424.43 1531.54 Q1430.57 1531.54 1433.72 1535.36 Q1436.87 1539.14 1436.87 1546.53 Z" fill="#000000" fill-rule="evenodd" fill-opacity="1"></path><path clip-path="url(#clip150)" d="M1474.21 1533.76 L1474.21 1539.24 Q1471.73 1537.87 1469.21 1537.2 Q1466.73 1536.5 1464.18 1536.5 Q1458.49 1536.5 1455.34 1540.13 Q1452.18 1543.73 1452.18 1550.25 Q1452.18 1556.78 1455.34 1560.4 Q1458.49 1564 1464.18 1564 Q1466.73 1564 1469.21 1563.33 Q1471.73 1562.63 1474.21 1561.26 L1474.21 1566.68 Q1471.76 1567.82 1469.12 1568.39 Q1466.51 1568.97 1463.55 1568.97 Q1455.49 1568.97 1450.75 1563.91 Q1446.01 1558.85 1446.01 1550.25 Q1446.01 1541.53 1450.78 1536.53 Q1455.59 1531.54 1463.93 1531.54 Q1466.63 1531.54 1469.21 1532.11 Q1471.79 1532.65 1474.21 1533.76 Z" fill="#000000" fill-rule="evenodd" fill-opacity="1"></path><path clip-path="url(#clip150)" d="M1514.89 1548.76 L1514.89 1551.62 L1487.96 1551.62 Q1488.34 1557.67 1491.59 1560.85 Q1494.87 1564 1500.69 1564 Q1504.06 1564 1507.22 1563.17 Q1510.4 1562.35 1513.52 1560.69 L1513.52 1566.23 Q1510.37 1567.57 1507.06 1568.27 Q1503.75 1568.97 1500.34 1568.97 Q1491.81 1568.97 1486.81 1564 Q1481.85 1559.04 1481.85 1550.57 Q1481.85 1541.82 1486.56 1536.69 Q1491.3 1531.54 1499.32 1531.54 Q1506.52 1531.54 1510.68 1536.18 Q1514.89 1540.8 1514.89 1548.76 M1509.03 1547.04 Q1508.97 1542.23 1506.32 1539.37 Q1503.71 1536.5 1499.39 1536.5 Q1494.48 1536.5 1491.52 1539.27 Q1488.6 1542.04 1488.15 1547.07 L1509.03 1547.04 Z" fill="#000000" fill-rule="evenodd" fill-opacity="1"></path><polyline clip-path="url(#clip152)" style="stroke:#000000; stroke-linecap:butt; stroke-linejoin:round; stroke-width:2; stroke-opacity:0.1; fill:none" points="
  407.875,1347.96 2352.76,1347.96 
  "></polyline>
<polyline clip-path="url(#clip152)" style="stroke:#000000; stroke-linecap:butt; stroke-linejoin:round; stroke-width:2; stroke-opacity:0.1; fill:none" points="
  407.875,1087.31 2352.76,1087.31 
  "></polyline>
<polyline clip-path="url(#clip152)" style="stroke:#000000; stroke-linecap:butt; stroke-linejoin:round; stroke-width:2; stroke-opacity:0.1; fill:none" points="
  407.875,826.657 2352.76,826.657 
  "></polyline>
<polyline clip-path="url(#clip152)" style="stroke:#000000; stroke-linecap:butt; stroke-linejoin:round; stroke-width:2; stroke-opacity:0.1; fill:none" points="
  407.875,566.008 2352.76,566.008 
  "></polyline>
<polyline clip-path="url(#clip152)" style="stroke:#000000; stroke-linecap:butt; stroke-linejoin:round; stroke-width:2; stroke-opacity:0.1; fill:none" points="
  407.875,305.359 2352.76,305.359 
  "></polyline>
<polyline clip-path="url(#clip150)" style="stroke:#000000; stroke-linecap:butt; stroke-linejoin:round; stroke-width:4; stroke-opacity:1; fill:none" points="
  407.875,1423.18 407.875,47.2441 
  "></polyline>
<polyline clip-path="url(#clip150)" style="stroke:#000000; stroke-linecap:butt; stroke-linejoin:round; stroke-width:4; stroke-opacity:1; fill:none" points="
  407.875,1347.96 426.772,1347.96 
  "></polyline>
<polyline clip-path="url(#clip150)" style="stroke:#000000; stroke-linecap:butt; stroke-linejoin:round; stroke-width:4; stroke-opacity:1; fill:none" points="
  407.875,1087.31 426.772,1087.31 
  "></polyline>
<polyline clip-path="url(#clip150)" style="stroke:#000000; stroke-linecap:butt; stroke-linejoin:round; stroke-width:4; stroke-opacity:1; fill:none" points="
  407.875,826.657 426.772,826.657 
  "></polyline>
<polyline clip-path="url(#clip150)" style="stroke:#000000; stroke-linecap:butt; stroke-linejoin:round; stroke-width:4; stroke-opacity:1; fill:none" points="
  407.875,566.008 426.772,566.008 
  "></polyline>
<polyline clip-path="url(#clip150)" style="stroke:#000000; stroke-linecap:butt; stroke-linejoin:round; stroke-width:4; stroke-opacity:1; fill:none" points="
  407.875,305.359 426.772,305.359 
  "></polyline>
<path clip-path="url(#clip150)" d="M114.26 1354.85 L143.936 1354.85 L143.936 1358.79 L114.26 1358.79 L114.26 1354.85 Z" fill="#000000" fill-rule="evenodd" fill-opacity="1"></path><path clip-path="url(#clip150)" d="M154.839 1367.75 L162.477 1367.75 L162.477 1341.38 L154.167 1343.05 L154.167 1338.79 L162.431 1337.12 L167.107 1337.12 L167.107 1367.75 L174.746 1367.75 L174.746 1371.68 L154.839 1371.68 L154.839 1367.75 Z" fill="#000000" fill-rule="evenodd" fill-opacity="1"></path><path clip-path="url(#clip150)" d="M184.19 1365.8 L189.075 1365.8 L189.075 1371.68 L184.19 1371.68 L184.19 1365.8 Z" fill="#000000" fill-rule="evenodd" fill-opacity="1"></path><path clip-path="url(#clip150)" d="M199.306 1337.12 L217.662 1337.12 L217.662 1341.06 L203.588 1341.06 L203.588 1349.53 Q204.607 1349.18 205.625 1349.02 Q206.644 1348.84 207.662 1348.84 Q213.449 1348.84 216.829 1352.01 Q220.209 1355.18 220.209 1360.6 Q220.209 1366.17 216.736 1369.28 Q213.264 1372.35 206.945 1372.35 Q204.769 1372.35 202.5 1371.98 Q200.255 1371.61 197.848 1370.87 L197.848 1366.17 Q199.931 1367.31 202.153 1367.86 Q204.375 1368.42 206.852 1368.42 Q210.857 1368.42 213.195 1366.31 Q215.533 1364.21 215.533 1360.6 Q215.533 1356.98 213.195 1354.88 Q210.857 1352.77 206.852 1352.77 Q204.977 1352.77 203.102 1353.19 Q201.25 1353.6 199.306 1354.48 L199.306 1337.12 Z" fill="#000000" fill-rule="evenodd" fill-opacity="1"></path><path clip-path="url(#clip150)" d="M239.422 1340.2 Q235.81 1340.2 233.982 1343.77 Q232.176 1347.31 232.176 1354.44 Q232.176 1361.54 233.982 1365.11 Q235.81 1368.65 239.422 1368.65 Q243.056 1368.65 244.861 1365.11 Q246.69 1361.54 246.69 1354.44 Q246.69 1347.31 244.861 1343.77 Q243.056 1340.2 239.422 1340.2 M239.422 1336.5 Q245.232 1336.5 248.287 1341.11 Q251.366 1345.69 251.366 1354.44 Q251.366 1363.17 248.287 1367.77 Q245.232 1372.35 239.422 1372.35 Q233.611 1372.35 230.533 1367.77 Q227.477 1363.17 227.477 1354.44 Q227.477 1345.69 230.533 1341.11 Q233.611 1336.5 239.422 1336.5 Z" fill="#000000" fill-rule="evenodd" fill-opacity="1"></path><path clip-path="url(#clip150)" d="M287.755 1346.22 L277.176 1356.85 L287.755 1367.42 L285 1370.23 L274.375 1359.6 L263.75 1370.23 L261.019 1367.42 L271.574 1356.85 L261.019 1346.22 L263.75 1343.42 L274.375 1354.04 L285 1343.42 L287.755 1346.22 Z" fill="#000000" fill-rule="evenodd" fill-opacity="1"></path><path clip-path="url(#clip150)" d="M300.116 1367.75 L307.754 1367.75 L307.754 1341.38 L299.444 1343.05 L299.444 1338.79 L307.708 1337.12 L312.384 1337.12 L312.384 1367.75 L320.023 1367.75 L320.023 1371.68 L300.116 1371.68 L300.116 1367.75 Z" fill="#000000" fill-rule="evenodd" fill-opacity="1"></path><path clip-path="url(#clip150)" d="M339.467 1340.2 Q335.856 1340.2 334.027 1343.77 Q332.222 1347.31 332.222 1354.44 Q332.222 1361.54 334.027 1365.11 Q335.856 1368.65 339.467 1368.65 Q343.102 1368.65 344.907 1365.11 Q346.736 1361.54 346.736 1354.44 Q346.736 1347.31 344.907 1343.77 Q343.102 1340.2 339.467 1340.2 M339.467 1336.5 Q345.277 1336.5 348.333 1341.11 Q351.412 1345.69 351.412 1354.44 Q351.412 1363.17 348.333 1367.77 Q345.277 1372.35 339.467 1372.35 Q333.657 1372.35 330.578 1367.77 Q327.523 1363.17 327.523 1354.44 Q327.523 1345.69 330.578 1341.11 Q333.657 1336.5 339.467 1336.5 Z" fill="#000000" fill-rule="evenodd" fill-opacity="1"></path><path clip-path="url(#clip150)" d="M364.088 1319.5 L354.496 1334.49 L364.088 1334.49 L364.088 1319.5 M363.091 1316.19 L367.868 1316.19 L367.868 1334.49 L371.875 1334.49 L371.875 1337.65 L367.868 1337.65 L367.868 1344.27 L364.088 1344.27 L364.088 1337.65 L351.412 1337.65 L351.412 1333.99 L363.091 1316.19 Z" fill="#000000" fill-rule="evenodd" fill-opacity="1"></path><path clip-path="url(#clip150)" d="M114.26 1094.21 L143.936 1094.21 L143.936 1098.14 L114.26 1098.14 L114.26 1094.21 Z" fill="#000000" fill-rule="evenodd" fill-opacity="1"></path><path clip-path="url(#clip150)" d="M154.839 1107.1 L162.477 1107.1 L162.477 1080.73 L154.167 1082.4 L154.167 1078.14 L162.431 1076.47 L167.107 1076.47 L167.107 1107.1 L174.746 1107.1 L174.746 1111.03 L154.839 1111.03 L154.839 1107.1 Z" fill="#000000" fill-rule="evenodd" fill-opacity="1"></path><path clip-path="url(#clip150)" d="M184.19 1105.15 L189.075 1105.15 L189.075 1111.03 L184.19 1111.03 L184.19 1105.15 Z" fill="#000000" fill-rule="evenodd" fill-opacity="1"></path><path clip-path="url(#clip150)" d="M209.26 1079.55 Q205.649 1079.55 203.82 1083.12 Q202.014 1086.66 202.014 1093.79 Q202.014 1100.9 203.82 1104.46 Q205.649 1108 209.26 1108 Q212.894 1108 214.699 1104.46 Q216.528 1100.9 216.528 1093.79 Q216.528 1086.66 214.699 1083.12 Q212.894 1079.55 209.26 1079.55 M209.26 1075.85 Q215.07 1075.85 218.125 1080.46 Q221.204 1085.04 221.204 1093.79 Q221.204 1102.52 218.125 1107.12 Q215.07 1111.71 209.26 1111.71 Q203.449 1111.71 200.371 1107.12 Q197.315 1102.52 197.315 1093.79 Q197.315 1085.04 200.371 1080.46 Q203.449 1075.85 209.26 1075.85 Z" fill="#000000" fill-rule="evenodd" fill-opacity="1"></path><path clip-path="url(#clip150)" d="M239.422 1079.55 Q235.81 1079.55 233.982 1083.12 Q232.176 1086.66 232.176 1093.79 Q232.176 1100.9 233.982 1104.46 Q235.81 1108 239.422 1108 Q243.056 1108 244.861 1104.46 Q246.69 1100.9 246.69 1093.79 Q246.69 1086.66 244.861 1083.12 Q243.056 1079.55 239.422 1079.55 M239.422 1075.85 Q245.232 1075.85 248.287 1080.46 Q251.366 1085.04 251.366 1093.79 Q251.366 1102.52 248.287 1107.12 Q245.232 1111.71 239.422 1111.71 Q233.611 1111.71 230.533 1107.12 Q227.477 1102.52 227.477 1093.79 Q227.477 1085.04 230.533 1080.46 Q233.611 1075.85 239.422 1075.85 Z" fill="#000000" fill-rule="evenodd" fill-opacity="1"></path><path clip-path="url(#clip150)" d="M287.755 1085.57 L277.176 1096.2 L287.755 1106.77 L285 1109.58 L274.375 1098.95 L263.75 1109.58 L261.019 1106.77 L271.574 1096.2 L261.019 1085.57 L263.75 1082.77 L274.375 1093.4 L285 1082.77 L287.755 1085.57 Z" fill="#000000" fill-rule="evenodd" fill-opacity="1"></path><path clip-path="url(#clip150)" d="M300.116 1107.1 L307.754 1107.1 L307.754 1080.73 L299.444 1082.4 L299.444 1078.14 L307.708 1076.47 L312.384 1076.47 L312.384 1107.1 L320.023 1107.1 L320.023 1111.03 L300.116 1111.03 L300.116 1107.1 Z" fill="#000000" fill-rule="evenodd" fill-opacity="1"></path><path clip-path="url(#clip150)" d="M339.467 1079.55 Q335.856 1079.55 334.027 1083.12 Q332.222 1086.66 332.222 1093.79 Q332.222 1100.9 334.027 1104.46 Q335.856 1108 339.467 1108 Q343.102 1108 344.907 1104.46 Q346.736 1100.9 346.736 1093.79 Q346.736 1086.66 344.907 1083.12 Q343.102 1079.55 339.467 1079.55 M339.467 1075.85 Q345.277 1075.85 348.333 1080.46 Q351.412 1085.04 351.412 1093.79 Q351.412 1102.52 348.333 1107.12 Q345.277 1111.71 339.467 1111.71 Q333.657 1111.71 330.578 1107.12 Q327.523 1102.52 327.523 1093.79 Q327.523 1085.04 330.578 1080.46 Q333.657 1075.85 339.467 1075.85 Z" fill="#000000" fill-rule="evenodd" fill-opacity="1"></path><path clip-path="url(#clip150)" d="M364.088 1058.85 L354.496 1073.84 L364.088 1073.84 L364.088 1058.85 M363.091 1055.54 L367.868 1055.54 L367.868 1073.84 L371.875 1073.84 L371.875 1077 L367.868 1077 L367.868 1083.62 L364.088 1083.62 L364.088 1077 L351.412 1077 L351.412 1073.34 L363.091 1055.54 Z" fill="#000000" fill-rule="evenodd" fill-opacity="1"></path><path clip-path="url(#clip150)" d="M116.235 833.556 L145.911 833.556 L145.911 837.491 L116.235 837.491 L116.235 833.556 Z" fill="#000000" fill-rule="evenodd" fill-opacity="1"></path><path clip-path="url(#clip150)" d="M156.05 815.825 L174.406 815.825 L174.406 819.76 L160.332 819.76 L160.332 828.232 Q161.35 827.885 162.369 827.723 Q163.387 827.538 164.406 827.538 Q170.193 827.538 173.573 830.709 Q176.952 833.88 176.952 839.297 Q176.952 844.876 173.48 847.977 Q170.008 851.056 163.688 851.056 Q161.513 851.056 159.244 850.686 Q156.999 850.315 154.591 849.575 L154.591 844.876 Q156.675 846.01 158.897 846.565 Q161.119 847.121 163.596 847.121 Q167.6 847.121 169.938 845.015 Q172.276 842.908 172.276 839.297 Q172.276 835.686 169.938 833.579 Q167.6 831.473 163.596 831.473 Q161.721 831.473 159.846 831.89 Q157.994 832.306 156.05 833.186 L156.05 815.825 Z" fill="#000000" fill-rule="evenodd" fill-opacity="1"></path><path clip-path="url(#clip150)" d="M186.165 844.505 L191.049 844.505 L191.049 850.385 L186.165 850.385 L186.165 844.505 Z" fill="#000000" fill-rule="evenodd" fill-opacity="1"></path><path clip-path="url(#clip150)" d="M211.234 818.904 Q207.623 818.904 205.795 822.468 Q203.989 826.01 203.989 833.14 Q203.989 840.246 205.795 843.811 Q207.623 847.352 211.234 847.352 Q214.869 847.352 216.674 843.811 Q218.503 840.246 218.503 833.14 Q218.503 826.01 216.674 822.468 Q214.869 818.904 211.234 818.904 M211.234 815.2 Q217.045 815.2 220.1 819.806 Q223.179 824.39 223.179 833.14 Q223.179 841.866 220.1 846.473 Q217.045 851.056 211.234 851.056 Q205.424 851.056 202.346 846.473 Q199.29 841.866 199.29 833.14 Q199.29 824.39 202.346 819.806 Q205.424 815.2 211.234 815.2 Z" fill="#000000" fill-rule="evenodd" fill-opacity="1"></path><path clip-path="url(#clip150)" d="M241.396 818.904 Q237.785 818.904 235.957 822.468 Q234.151 826.01 234.151 833.14 Q234.151 840.246 235.957 843.811 Q237.785 847.352 241.396 847.352 Q245.031 847.352 246.836 843.811 Q248.665 840.246 248.665 833.14 Q248.665 826.01 246.836 822.468 Q245.031 818.904 241.396 818.904 M241.396 815.2 Q247.206 815.2 250.262 819.806 Q253.341 824.39 253.341 833.14 Q253.341 841.866 250.262 846.473 Q247.206 851.056 241.396 851.056 Q235.586 851.056 232.507 846.473 Q229.452 841.866 229.452 833.14 Q229.452 824.39 232.507 819.806 Q235.586 815.2 241.396 815.2 Z" fill="#000000" fill-rule="evenodd" fill-opacity="1"></path><path clip-path="url(#clip150)" d="M289.729 824.922 L279.151 835.547 L289.729 846.126 L286.975 848.927 L276.35 838.302 L265.725 848.927 L262.993 846.126 L273.549 835.547 L262.993 824.922 L265.725 822.121 L276.35 832.746 L286.975 822.121 L289.729 824.922 Z" fill="#000000" fill-rule="evenodd" fill-opacity="1"></path><path clip-path="url(#clip150)" d="M302.09 846.45 L309.729 846.45 L309.729 820.084 L301.419 821.751 L301.419 817.492 L309.683 815.825 L314.359 815.825 L314.359 846.45 L321.998 846.45 L321.998 850.385 L302.09 850.385 L302.09 846.45 Z" fill="#000000" fill-rule="evenodd" fill-opacity="1"></path><path clip-path="url(#clip150)" d="M341.442 818.904 Q337.831 818.904 336.002 822.468 Q334.197 826.01 334.197 833.14 Q334.197 840.246 336.002 843.811 Q337.831 847.352 341.442 847.352 Q345.076 847.352 346.882 843.811 Q348.711 840.246 348.711 833.14 Q348.711 826.01 346.882 822.468 Q345.076 818.904 341.442 818.904 M341.442 815.2 Q347.252 815.2 350.308 819.806 Q353.386 824.39 353.386 833.14 Q353.386 841.866 350.308 846.473 Q347.252 851.056 341.442 851.056 Q335.632 851.056 332.553 846.473 Q329.498 841.866 329.498 833.14 Q329.498 824.39 332.553 819.806 Q335.632 815.2 341.442 815.2 Z" fill="#000000" fill-rule="evenodd" fill-opacity="1"></path><path clip-path="url(#clip150)" d="M366.082 807.834 Q368.809 808.417 370.332 810.26 Q371.875 812.104 371.875 814.812 Q371.875 818.968 369.016 821.244 Q366.157 823.52 360.891 823.52 Q359.123 823.52 357.242 823.163 Q355.38 822.824 353.386 822.128 L353.386 818.461 Q354.966 819.382 356.847 819.852 Q358.728 820.323 360.778 820.323 Q364.351 820.323 366.213 818.912 Q368.094 817.501 368.094 814.812 Q368.094 812.329 366.345 810.937 Q364.615 809.527 361.511 809.527 L358.239 809.527 L358.239 806.405 L361.662 806.405 Q364.464 806.405 365.95 805.295 Q367.436 804.167 367.436 802.06 Q367.436 799.897 365.894 798.75 Q364.37 797.584 361.511 797.584 Q359.95 797.584 358.164 797.923 Q356.377 798.261 354.233 798.976 L354.233 795.59 Q356.396 794.988 358.277 794.688 Q360.176 794.387 361.85 794.387 Q366.176 794.387 368.696 796.361 Q371.216 798.317 371.216 801.665 Q371.216 803.997 369.881 805.615 Q368.546 807.214 366.082 807.834 Z" fill="#000000" fill-rule="evenodd" fill-opacity="1"></path><path clip-path="url(#clip150)" d="M359.93 551.807 Q356.319 551.807 354.49 555.371 Q352.685 558.913 352.685 566.043 Q352.685 573.149 354.49 576.714 Q356.319 580.255 359.93 580.255 Q363.564 580.255 365.37 576.714 Q367.199 573.149 367.199 566.043 Q367.199 558.913 365.37 555.371 Q363.564 551.807 359.93 551.807 M359.93 548.103 Q365.74 548.103 368.796 552.709 Q371.875 557.293 371.875 566.043 Q371.875 574.769 368.796 579.376 Q365.74 583.959 359.93 583.959 Q354.12 583.959 351.041 579.376 Q347.986 574.769 347.986 566.043 Q347.986 557.293 351.041 552.709 Q354.12 548.103 359.93 548.103 Z" fill="#000000" fill-rule="evenodd" fill-opacity="1"></path><path clip-path="url(#clip150)" d="M156.05 294.526 L174.406 294.526 L174.406 298.461 L160.332 298.461 L160.332 306.933 Q161.35 306.586 162.369 306.424 Q163.387 306.239 164.406 306.239 Q170.193 306.239 173.573 309.41 Q176.952 312.582 176.952 317.998 Q176.952 323.577 173.48 326.679 Q170.008 329.757 163.688 329.757 Q161.513 329.757 159.244 329.387 Q156.999 329.017 154.591 328.276 L154.591 323.577 Q156.675 324.711 158.897 325.267 Q161.119 325.822 163.596 325.822 Q167.6 325.822 169.938 323.716 Q172.276 321.609 172.276 317.998 Q172.276 314.387 169.938 312.281 Q167.6 310.174 163.596 310.174 Q161.721 310.174 159.846 310.591 Q157.994 311.008 156.05 311.887 L156.05 294.526 Z" fill="#000000" fill-rule="evenodd" fill-opacity="1"></path><path clip-path="url(#clip150)" d="M186.165 323.207 L191.049 323.207 L191.049 329.086 L186.165 329.086 L186.165 323.207 Z" fill="#000000" fill-rule="evenodd" fill-opacity="1"></path><path clip-path="url(#clip150)" d="M211.234 297.605 Q207.623 297.605 205.795 301.17 Q203.989 304.711 203.989 311.841 Q203.989 318.947 205.795 322.512 Q207.623 326.054 211.234 326.054 Q214.869 326.054 216.674 322.512 Q218.503 318.947 218.503 311.841 Q218.503 304.711 216.674 301.17 Q214.869 297.605 211.234 297.605 M211.234 293.901 Q217.045 293.901 220.1 298.508 Q223.179 303.091 223.179 311.841 Q223.179 320.568 220.1 325.174 Q217.045 329.757 211.234 329.757 Q205.424 329.757 202.346 325.174 Q199.29 320.568 199.29 311.841 Q199.29 303.091 202.346 298.508 Q205.424 293.901 211.234 293.901 Z" fill="#000000" fill-rule="evenodd" fill-opacity="1"></path><path clip-path="url(#clip150)" d="M241.396 297.605 Q237.785 297.605 235.957 301.17 Q234.151 304.711 234.151 311.841 Q234.151 318.947 235.957 322.512 Q237.785 326.054 241.396 326.054 Q245.031 326.054 246.836 322.512 Q248.665 318.947 248.665 311.841 Q248.665 304.711 246.836 301.17 Q245.031 297.605 241.396 297.605 M241.396 293.901 Q247.206 293.901 250.262 298.508 Q253.341 303.091 253.341 311.841 Q253.341 320.568 250.262 325.174 Q247.206 329.757 241.396 329.757 Q235.586 329.757 232.507 325.174 Q229.452 320.568 229.452 311.841 Q229.452 303.091 232.507 298.508 Q235.586 293.901 241.396 293.901 Z" fill="#000000" fill-rule="evenodd" fill-opacity="1"></path><path clip-path="url(#clip150)" d="M289.729 303.623 L279.151 314.248 L289.729 324.827 L286.975 327.628 L276.35 317.003 L265.725 327.628 L262.993 324.827 L273.549 314.248 L262.993 303.623 L265.725 300.822 L276.35 311.447 L286.975 300.822 L289.729 303.623 Z" fill="#000000" fill-rule="evenodd" fill-opacity="1"></path><path clip-path="url(#clip150)" d="M302.09 325.151 L309.729 325.151 L309.729 298.785 L301.419 300.452 L301.419 296.193 L309.683 294.526 L314.359 294.526 L314.359 325.151 L321.998 325.151 L321.998 329.086 L302.09 329.086 L302.09 325.151 Z" fill="#000000" fill-rule="evenodd" fill-opacity="1"></path><path clip-path="url(#clip150)" d="M341.442 297.605 Q337.831 297.605 336.002 301.17 Q334.197 304.711 334.197 311.841 Q334.197 318.947 336.002 322.512 Q337.831 326.054 341.442 326.054 Q345.076 326.054 346.882 322.512 Q348.711 318.947 348.711 311.841 Q348.711 304.711 346.882 301.17 Q345.076 297.605 341.442 297.605 M341.442 293.901 Q347.252 293.901 350.308 298.508 Q353.386 303.091 353.386 311.841 Q353.386 320.568 350.308 325.174 Q347.252 329.757 341.442 329.757 Q335.632 329.757 332.553 325.174 Q329.498 320.568 329.498 311.841 Q329.498 303.091 332.553 298.508 Q335.632 293.901 341.442 293.901 Z" fill="#000000" fill-rule="evenodd" fill-opacity="1"></path><path clip-path="url(#clip150)" d="M366.082 286.535 Q368.809 287.119 370.332 288.962 Q371.875 290.805 371.875 293.513 Q371.875 297.67 369.016 299.945 Q366.157 302.221 360.891 302.221 Q359.123 302.221 357.242 301.864 Q355.38 301.525 353.386 300.829 L353.386 297.162 Q354.966 298.083 356.847 298.554 Q358.728 299.024 360.778 299.024 Q364.351 299.024 366.213 297.613 Q368.094 296.203 368.094 293.513 Q368.094 291.031 366.345 289.639 Q364.615 288.228 361.511 288.228 L358.239 288.228 L358.239 285.106 L361.662 285.106 Q364.464 285.106 365.95 283.996 Q367.436 282.868 367.436 280.761 Q367.436 278.599 365.894 277.451 Q364.37 276.285 361.511 276.285 Q359.95 276.285 358.164 276.624 Q356.377 276.962 354.233 277.677 L354.233 274.292 Q356.396 273.69 358.277 273.389 Q360.176 273.088 361.85 273.088 Q366.176 273.088 368.696 275.063 Q371.216 277.019 371.216 280.367 Q371.216 282.699 369.881 284.316 Q368.546 285.915 366.082 286.535 Z" fill="#000000" fill-rule="evenodd" fill-opacity="1"></path><path clip-path="url(#clip150)" d="M14.479 978.764 L19.3487 978.764 L19.3487 984.366 Q19.3487 987.517 20.6219 988.758 Q21.895 989.968 25.2052 989.968 L28.3562 989.968 L28.3562 980.324 L32.9077 980.324 L32.9077 989.968 L64.0042 989.968 L64.0042 995.856 L32.9077 995.856 L32.9077 1001.46 L28.3562 1001.46 L28.3562 995.856 L25.8736 995.856 Q19.9216 995.856 17.2162 993.087 Q14.479 990.318 14.479 984.302 L14.479 978.764 Z" fill="#000000" fill-rule="evenodd" fill-opacity="1"></path><path clip-path="url(#clip150)" d="M32.4621 960.049 Q32.4621 964.759 36.1542 967.497 Q39.8145 970.234 46.212 970.234 Q52.6095 970.234 56.3017 967.528 Q59.9619 964.791 59.9619 960.049 Q59.9619 955.37 56.2698 952.633 Q52.5777 949.895 46.212 949.895 Q39.8781 949.895 36.186 952.633 Q32.4621 955.37 32.4621 960.049 M27.4968 960.049 Q27.4968 952.41 32.4621 948.049 Q37.4273 943.689 46.212 943.689 Q54.9649 943.689 59.9619 948.049 Q64.9272 952.41 64.9272 960.049 Q64.9272 967.719 59.9619 972.08 Q54.9649 976.409 46.212 976.409 Q37.4273 976.409 32.4621 972.08 Q27.4968 967.719 27.4968 960.049 Z" fill="#000000" fill-rule="evenodd" fill-opacity="1"></path><path clip-path="url(#clip150)" d="M33.8307 913.324 Q33.2578 914.311 33.0032 915.489 Q32.7167 916.635 32.7167 918.035 Q32.7167 923 35.9632 925.674 Q39.1779 928.316 45.2253 928.316 L64.0042 928.316 L64.0042 934.204 L28.3562 934.204 L28.3562 928.316 L33.8944 928.316 Q30.6479 926.47 29.0883 923.51 Q27.4968 920.55 27.4968 916.316 Q27.4968 915.712 27.5923 914.98 Q27.656 914.247 27.8151 913.356 L33.8307 913.324 Z" fill="#000000" fill-rule="evenodd" fill-opacity="1"></path><path clip-path="url(#clip150)" d="M29.7248 882.96 L35.1993 882.96 Q33.8307 885.443 33.1623 887.957 Q32.4621 890.44 32.4621 892.986 Q32.4621 898.683 36.0905 901.834 Q39.6872 904.985 46.212 904.985 Q52.7369 904.985 56.3653 901.834 Q59.9619 898.683 59.9619 892.986 Q59.9619 890.44 59.2935 887.957 Q58.5933 885.443 57.2247 882.96 L62.6355 882.96 Q63.7814 885.411 64.3543 888.053 Q64.9272 890.663 64.9272 893.623 Q64.9272 901.675 59.8664 906.418 Q54.8057 911.16 46.212 911.16 Q37.491 911.16 32.4939 906.386 Q27.4968 901.58 27.4968 893.241 Q27.4968 890.535 28.0697 887.957 Q28.6108 885.379 29.7248 882.96 Z" fill="#000000" fill-rule="evenodd" fill-opacity="1"></path><path clip-path="url(#clip150)" d="M44.7161 842.283 L47.5806 842.283 L47.5806 869.21 Q53.6281 868.828 56.8109 865.582 Q59.9619 862.303 59.9619 856.479 Q59.9619 853.105 59.1344 849.954 Q58.3069 846.771 56.6518 843.652 L62.1899 843.652 Q63.5267 846.803 64.227 850.113 Q64.9272 853.423 64.9272 856.829 Q64.9272 865.359 59.9619 870.356 Q54.9967 875.321 46.5303 875.321 Q37.7774 875.321 32.6531 870.611 Q27.4968 865.868 27.4968 857.847 Q27.4968 850.654 32.1438 846.485 Q36.7589 842.283 44.7161 842.283 M42.9973 848.14 Q38.1912 848.203 35.3266 850.845 Q32.4621 853.455 32.4621 857.784 Q32.4621 862.685 35.2312 865.645 Q38.0002 868.574 43.0292 869.019 L42.9973 848.14 Z" fill="#000000" fill-rule="evenodd" fill-opacity="1"></path><path clip-path="url(#clip150)" d="M35.1993 784.196 Q31.2526 782 29.3747 778.944 Q27.4968 775.889 27.4968 771.751 Q27.4968 766.181 31.4117 763.157 Q35.2948 760.134 42.4881 760.134 L64.0042 760.134 L64.0042 766.022 L42.679 766.022 Q37.5546 766.022 35.072 767.836 Q32.5894 769.65 32.5894 773.374 Q32.5894 777.926 35.6131 780.568 Q38.6368 783.209 43.8567 783.209 L64.0042 783.209 L64.0042 789.098 L42.679 789.098 Q37.5228 789.098 35.072 790.912 Q32.5894 792.726 32.5894 796.514 Q32.5894 801.002 35.6449 803.643 Q38.6686 806.285 43.8567 806.285 L64.0042 806.285 L64.0042 812.173 L28.3562 812.173 L28.3562 806.285 L33.8944 806.285 Q30.616 804.28 29.0564 801.479 Q27.4968 798.678 27.4968 794.827 Q27.4968 790.944 29.4702 788.238 Q31.4436 785.501 35.1993 784.196 Z" fill="#000000" fill-rule="evenodd" fill-opacity="1"></path><path clip-path="url(#clip150)" d="M46.0847 732.252 Q46.0847 739.35 47.7079 742.087 Q49.3312 744.824 53.2461 744.824 Q56.3653 744.824 58.2114 742.787 Q60.0256 740.718 60.0256 737.185 Q60.0256 732.316 56.5881 729.387 Q53.1188 726.427 47.3897 726.427 L46.0847 726.427 L46.0847 732.252 M43.6657 720.571 L64.0042 720.571 L64.0042 726.427 L58.5933 726.427 Q61.8398 728.432 63.3994 731.424 Q64.9272 734.416 64.9272 738.745 Q64.9272 744.219 61.8716 747.466 Q58.7843 750.681 53.6281 750.681 Q47.6125 750.681 44.5569 746.67 Q41.5014 742.628 41.5014 734.639 L41.5014 726.427 L40.9285 726.427 Q36.8862 726.427 34.6901 729.101 Q32.4621 731.743 32.4621 736.549 Q32.4621 739.604 33.1941 742.501 Q33.9262 745.397 35.3903 748.071 L29.9795 748.071 Q28.7381 744.856 28.1334 741.832 Q27.4968 738.809 27.4968 735.944 Q27.4968 728.21 31.5072 724.39 Q35.5176 720.571 43.6657 720.571 Z" fill="#000000" fill-rule="evenodd" fill-opacity="1"></path><path clip-path="url(#clip150)" d="M45.7664 685.05 Q39.4007 685.05 35.8996 687.692 Q32.3984 690.302 32.3984 695.044 Q32.3984 699.755 35.8996 702.397 Q39.4007 705.007 45.7664 705.007 Q52.1003 705.007 55.6014 702.397 Q59.1026 699.755 59.1026 695.044 Q59.1026 690.302 55.6014 687.692 Q52.1003 685.05 45.7664 685.05 M59.58 679.194 Q68.683 679.194 73.1071 683.236 Q77.5631 687.278 77.5631 695.617 Q77.5631 698.705 77.0857 701.442 Q76.6401 704.179 75.6852 706.757 L69.9879 706.757 Q71.3884 704.179 72.0568 701.665 Q72.7252 699.15 72.7252 696.54 Q72.7252 690.779 69.7015 687.915 Q66.7096 685.05 60.6303 685.05 L57.7339 685.05 Q60.885 686.864 62.4446 689.697 Q64.0042 692.53 64.0042 696.477 Q64.0042 703.033 59.0071 707.044 Q54.01 711.054 45.7664 711.054 Q37.491 711.054 32.4939 707.044 Q27.4968 703.033 27.4968 696.477 Q27.4968 692.53 29.0564 689.697 Q30.616 686.864 33.7671 685.05 L28.3562 685.05 L28.3562 679.194 L59.58 679.194 Z" fill="#000000" fill-rule="evenodd" fill-opacity="1"></path><path clip-path="url(#clip150)" d="M42.4881 637.498 L64.0042 637.498 L64.0042 643.355 L42.679 643.355 Q37.6183 643.355 35.1038 645.328 Q32.5894 647.302 32.5894 651.248 Q32.5894 655.991 35.6131 658.728 Q38.6368 661.465 43.8567 661.465 L64.0042 661.465 L64.0042 667.354 L28.3562 667.354 L28.3562 661.465 L33.8944 661.465 Q30.6797 659.365 29.0883 656.532 Q27.4968 653.667 27.4968 649.943 Q27.4968 643.8 31.3163 640.649 Q35.1038 637.498 42.4881 637.498 Z" fill="#000000" fill-rule="evenodd" fill-opacity="1"></path><path clip-path="url(#clip150)" d="M28.3562 625.817 L28.3562 619.961 L64.0042 619.961 L64.0042 625.817 L28.3562 625.817 M14.479 625.817 L14.479 619.961 L21.895 619.961 L21.895 625.817 L14.479 625.817 Z" fill="#000000" fill-rule="evenodd" fill-opacity="1"></path><path clip-path="url(#clip150)" d="M18.2347 601.914 L28.3562 601.914 L28.3562 589.851 L32.9077 589.851 L32.9077 601.914 L52.2594 601.914 Q56.6199 601.914 57.8613 600.736 Q59.1026 599.527 59.1026 595.867 L59.1026 589.851 L64.0042 589.851 L64.0042 595.867 Q64.0042 602.646 61.4897 605.224 Q58.9434 607.802 52.2594 607.802 L32.9077 607.802 L32.9077 612.099 L28.3562 612.099 L28.3562 607.802 L18.2347 607.802 L18.2347 601.914 Z" fill="#000000" fill-rule="evenodd" fill-opacity="1"></path><path clip-path="url(#clip150)" d="M49.9359 582.753 L28.3562 582.753 L28.3562 576.897 L49.7131 576.897 Q54.7739 576.897 57.3202 574.923 Q59.8346 572.95 59.8346 569.003 Q59.8346 564.261 56.8109 561.524 Q53.7872 558.755 48.5673 558.755 L28.3562 558.755 L28.3562 552.898 L64.0042 552.898 L64.0042 558.755 L58.5296 558.755 Q61.7762 560.887 63.3676 563.72 Q64.9272 566.521 64.9272 570.245 Q64.9272 576.388 61.1078 579.57 Q57.2883 582.753 49.9359 582.753 M27.4968 568.017 L27.4968 568.017 Z" fill="#000000" fill-rule="evenodd" fill-opacity="1"></path><path clip-path="url(#clip150)" d="M33.7671 517.377 L14.479 517.377 L14.479 511.521 L64.0042 511.521 L64.0042 517.377 L58.657 517.377 Q61.8398 519.224 63.3994 522.056 Q64.9272 524.857 64.9272 528.804 Q64.9272 535.265 59.771 539.339 Q54.6147 543.381 46.212 543.381 Q37.8093 543.381 32.6531 539.339 Q27.4968 535.265 27.4968 528.804 Q27.4968 524.857 29.0564 522.056 Q30.5842 519.224 33.7671 517.377 M46.212 537.334 Q52.6732 537.334 56.3653 534.692 Q60.0256 532.019 60.0256 527.372 Q60.0256 522.725 56.3653 520.051 Q52.6732 517.377 46.212 517.377 Q39.7508 517.377 36.0905 520.051 Q32.3984 522.725 32.3984 527.372 Q32.3984 532.019 36.0905 534.692 Q39.7508 537.334 46.212 537.334 Z" fill="#000000" fill-rule="evenodd" fill-opacity="1"></path><path clip-path="url(#clip150)" d="M44.7161 468.966 L47.5806 468.966 L47.5806 495.893 Q53.6281 495.511 56.8109 492.265 Q59.9619 488.986 59.9619 483.162 Q59.9619 479.788 59.1344 476.637 Q58.3069 473.454 56.6518 470.335 L62.1899 470.335 Q63.5267 473.486 64.227 476.796 Q64.9272 480.106 64.9272 483.512 Q64.9272 492.042 59.9619 497.039 Q54.9967 502.004 46.5303 502.004 Q37.7774 502.004 32.6531 497.294 Q27.4968 492.551 27.4968 484.53 Q27.4968 477.337 32.1438 473.168 Q36.7589 468.966 44.7161 468.966 M42.9973 474.823 Q38.1912 474.886 35.3266 477.528 Q32.4621 480.138 32.4621 484.467 Q32.4621 489.368 35.2312 492.328 Q38.0002 495.257 43.0292 495.702 L42.9973 474.823 Z" fill="#000000" fill-rule="evenodd" fill-opacity="1"></path><polyline clip-path="url(#clip152)" style="stroke:#009af9; stroke-linecap:butt; stroke-linejoin:round; stroke-width:4; stroke-opacity:1; fill:none" points="
  462.918,565.904 463.998,552.092 465.077,538.293 466.156,524.52 467.235,510.786 468.315,497.103 469.394,483.485 470.473,469.943 471.553,456.491 472.632,443.141 
  473.711,429.905 474.791,416.796 475.87,403.824 476.949,391.002 478.028,378.341 479.108,365.852 480.187,353.546 481.266,341.434 482.346,329.526 483.425,317.833 
  484.504,306.363 485.583,294.97 486.663,283.819 487.742,272.918 488.821,262.277 489.901,251.903 490.98,241.804 492.059,231.986 493.138,222.456 494.218,213.221 
  495.297,204.286 496.376,195.658 497.456,187.34 498.535,179.337 499.614,171.654 500.693,164.295 501.773,157.262 502.852,150.558 503.931,144.186 505.011,138.147 
  506.09,132.444 507.169,127.077 508.249,122.047 509.328,117.353 510.407,112.997 511.486,108.976 512.566,105.291 513.645,101.939 514.724,98.9194 515.804,96.2291 
  516.883,93.8658 517.962,91.8265 519.041,90.1079 520.121,88.7063 521.2,87.6178 522.279,86.838 523.359,86.3623 524.438,86.1857 525.517,86.303 526.596,86.7088 
  527.676,87.3973 528.755,88.3624 529.834,89.5981 530.914,91.0978 531.993,92.8549 533.072,94.8625 534.152,97.1137 535.231,99.6013 536.31,102.318 537.389,105.256 
  538.469,108.409 539.548,111.767 540.627,115.325 541.707,119.073 542.786,123.004 543.865,127.11 544.944,131.383 546.024,135.815 547.103,140.398 548.182,145.125 
  549.262,149.986 550.341,154.974 551.42,160.081 552.499,165.3 553.579,170.622 554.658,176.039 555.737,181.545 556.817,187.132 557.896,192.791 558.975,198.516 
  560.054,204.3 561.134,210.135 562.213,216.014 563.292,221.931 564.372,227.879 565.451,233.851 566.53,239.841 567.61,245.844 568.689,251.851 569.768,257.859 
  570.847,263.861 571.927,269.852 573.006,275.826 574.085,281.778 575.165,287.703 576.244,293.597 577.323,299.455 578.402,305.273 579.482,311.046 580.561,316.77 
  581.64,322.443 582.72,328.059 583.799,333.615 584.878,339.109 585.957,344.538 587.037,349.897 588.116,355.186 589.195,360.401 590.275,365.54 591.354,370.6 
  592.433,375.581 593.512,380.48 594.592,385.295 595.671,390.025 596.75,394.669 597.83,399.226 598.909,403.694 599.988,408.073 601.068,412.362 602.147,416.56 
  603.226,420.667 604.305,424.683 605.385,428.608 606.464,432.441 607.543,436.182 608.623,439.833 609.702,443.392 610.781,446.86 611.86,450.238 612.94,453.527 
  614.019,456.726 615.098,459.837 616.178,462.861 617.257,465.798 618.336,468.649 619.415,471.416 620.495,474.098 621.574,476.699 622.653,479.218 623.733,481.656 
  624.812,484.016 625.891,486.298 626.97,488.504 628.05,490.636 629.129,492.693 630.208,494.679 631.288,496.593 632.367,498.439 633.446,500.217 634.526,501.928 
  635.605,503.575 636.684,505.159 637.763,506.681 638.843,508.142 639.922,509.545 641.001,510.891 642.081,512.181 643.16,513.416 644.239,514.599 645.318,515.73 
  646.398,516.812 647.477,517.845 648.556,518.832 649.636,519.772 650.715,520.669 651.794,521.523 652.873,522.335 653.953,523.107 655.032,523.84 656.111,524.536 
  657.191,525.195 658.27,525.82 659.349,526.41 660.428,526.968 661.508,527.495 662.587,527.991 663.666,528.457 664.746,528.896 665.825,529.308 666.904,529.693 
  667.984,530.053 669.063,530.39 670.142,530.703 671.221,530.993 672.301,531.263 673.38,531.512 674.459,531.741 675.539,531.951 676.618,532.144 677.697,532.319 
  678.776,532.477 679.856,532.62 680.935,532.748 682.014,532.861 683.094,532.96 684.173,533.046 685.252,533.119 686.331,533.18 687.411,533.23 688.49,533.269 
  689.569,533.298 690.649,533.316 691.728,533.325 692.807,533.325 693.886,533.317 694.966,533.3 696.045,533.276 697.124,533.244 698.204,533.205 699.283,533.159 
  700.362,533.108 701.442,533.05 702.521,532.986 703.6,532.918 704.679,532.844 705.759,532.765 706.838,532.682 707.917,532.594 708.997,532.502 710.076,532.407 
  711.155,532.307 712.234,532.205 713.314,532.099 714.393,531.989 715.472,531.877 716.552,531.763 717.631,531.645 718.71,531.526 719.789,531.404 720.869,531.279 
  721.948,531.153 723.027,531.025 724.107,530.895 725.186,530.763 726.265,530.63 727.344,530.495 728.424,530.359 729.503,530.221 730.582,530.083 731.662,529.943 
  732.741,529.802 733.82,529.66 734.9,529.517 735.979,529.373 737.058,529.228 738.137,529.082 739.217,528.936 740.296,528.789 741.375,528.642 742.455,528.493 
  743.534,528.345 744.613,528.196 745.692,528.048 746.772,527.9 747.851,527.753 748.93,527.607 750.01,527.461 751.089,527.316 752.168,527.171 753.247,527.028 
  754.327,526.885 755.406,526.743 756.485,526.602 757.565,526.461 758.644,526.322 759.723,526.183 760.802,526.045 761.882,525.908 762.961,525.772 764.04,525.637 
  765.12,525.503 766.199,525.369 767.278,525.237 768.358,525.105 769.437,524.975 770.516,524.845 771.595,524.716 772.675,524.589 773.754,524.462 774.833,524.336 
  775.913,524.211 776.992,524.088 778.071,523.965 779.15,523.843 780.23,523.722 781.309,523.602 782.388,523.483 783.468,523.366 784.547,523.249 785.626,523.133 
  786.705,523.018 787.785,522.904 788.864,522.792 789.943,522.68 791.023,522.569 792.102,522.46 793.181,522.351 794.26,522.243 795.34,522.137 796.419,522.031 
  797.498,521.927 798.578,521.823 799.657,521.721 800.736,521.619 801.816,521.519 802.895,521.42 803.974,521.321 805.053,521.224 806.133,521.128 807.212,521.032 
  808.291,520.938 809.371,520.845 810.45,520.753 811.529,520.662 812.608,520.572 813.688,520.483 814.767,520.395 815.846,520.308 816.926,520.222 818.005,520.137 
  819.084,520.053 820.163,519.971 821.243,519.889 822.322,519.808 823.401,519.729 824.481,519.65 825.56,519.572 826.639,519.496 827.719,519.421 828.798,519.346 
  829.877,519.273 830.956,519.2 832.036,519.129 833.115,519.059 834.194,518.99 835.274,518.921 836.353,518.854 837.432,518.788 838.511,518.723 839.591,518.659 
  840.67,518.596 841.749,518.534 842.829,518.473 843.908,518.413 844.987,518.355 846.066,518.297 847.146,518.24 848.225,518.184 849.304,518.13 850.384,518.076 
  851.463,518.024 852.542,517.972 853.621,517.922 854.701,517.872 855.78,517.824 856.859,517.777 857.939,517.73 859.018,517.685 860.097,517.641 861.177,517.598 
  862.256,517.556 863.335,517.514 864.414,517.474 865.494,517.435 866.573,517.397 867.652,517.36 868.732,517.325 869.811,517.29 870.89,517.256 871.969,517.223 
  873.049,517.192 874.128,517.161 875.207,517.131 876.287,517.103 877.366,517.075 878.445,517.049 879.524,517.023 880.604,516.999 881.683,516.975 882.762,516.953 
  883.842,516.932 884.921,516.912 886,516.892 887.079,516.874 888.159,516.857 889.238,516.841 890.317,516.826 891.397,516.812 892.476,516.799 893.555,516.787 
  894.635,516.776 895.714,516.766 896.793,516.758 897.872,516.75 898.952,516.743 900.031,516.738 901.11,516.733 902.19,516.729 903.269,516.727 904.348,516.725 
  905.427,516.725 906.507,516.726 907.586,516.727 908.665,516.73 909.745,516.734 910.824,516.738 911.903,516.744 912.982,516.751 914.062,516.759 915.141,516.768 
  916.22,516.778 917.3,516.789 918.379,516.801 919.458,516.814 920.537,516.828 921.617,516.843 922.696,516.86 923.775,516.877 924.855,516.895 925.934,516.915 
  927.013,516.935 928.093,516.956 929.172,516.979 930.251,517.002 931.33,517.027 932.41,517.053 933.489,517.079 934.568,517.107 935.648,517.136 936.727,517.166 
  937.806,517.196 938.885,517.228 939.965,517.261 941.044,517.295 942.123,517.33 943.203,517.366 944.282,517.403 945.361,517.441 946.44,517.481 947.52,517.521 
  948.599,517.562 949.678,517.604 950.758,517.648 951.837,517.692 952.916,517.737 953.995,517.784 955.075,517.831 956.154,517.88 957.233,517.93 958.313,517.98 
  959.392,518.032 960.471,518.085 961.551,518.138 962.63,518.193 963.709,518.249 964.788,518.306 965.868,518.364 966.947,518.423 968.026,518.483 969.106,518.544 
  970.185,518.606 971.264,518.669 972.343,518.733 973.423,518.798 974.502,518.865 975.581,518.932 976.661,519 977.74,519.07 978.819,519.14 979.898,519.212 
  980.978,519.284 982.057,519.358 983.136,519.432 984.216,519.508 985.295,519.585 986.374,519.662 987.453,519.741 988.533,519.821 989.612,519.902 990.691,519.984 
  991.771,520.067 992.85,520.151 993.929,520.236 995.009,520.322 996.088,520.409 997.167,520.497 998.246,520.586 999.326,520.677 1000.4,520.768 1001.48,520.86 
  1002.56,520.954 1003.64,521.048 1004.72,521.143 1005.8,521.24 1006.88,521.337 1007.96,521.436 1009.04,521.536 1010.12,521.636 1011.2,521.738 1012.28,521.841 
  1013.36,521.945 1014.44,522.049 1015.52,522.155 1016.59,522.262 1017.67,522.37 1018.75,522.479 1019.83,522.589 1020.91,522.7 1021.99,522.812 1023.07,522.926 
  1024.15,523.04 1025.23,523.155 1026.31,523.271 1027.39,523.389 1028.47,523.507 1029.55,523.627 1030.63,523.747 1031.7,523.869 1032.78,523.991 1033.86,524.115 
  1034.94,524.239 1036.02,524.365 1037.1,524.492 1038.18,524.62 1039.26,524.748 1040.34,524.878 1041.42,525.009 1042.5,525.141 1043.58,525.274 1044.66,525.408 
  1045.74,525.543 1046.81,525.679 1047.89,525.816 1048.97,525.955 1050.05,526.094 1051.13,526.234 1052.21,526.375 1053.29,526.518 1054.37,526.661 1055.45,526.806 
  1056.53,526.951 1057.61,527.098 1058.69,527.245 1059.77,527.394 1060.85,527.543 1061.92,527.694 1063,527.846 1064.08,527.999 1065.16,528.152 1066.24,528.307 
  1067.32,528.463 1068.4,528.62 1069.48,528.778 1070.56,528.937 1071.64,529.097 1072.72,529.258 1073.8,529.421 1074.88,529.584 1075.96,529.748 1077.03,529.913 
  1078.11,530.08 1079.19,530.247 1080.27,530.416 1081.35,530.585 1082.43,530.756 1083.51,530.927 1084.59,531.1 1085.67,531.273 1086.75,531.448 1087.83,531.624 
  1088.91,531.8 1089.99,531.978 1091.07,532.157 1092.14,532.337 1093.22,532.518 1094.3,532.7 1095.38,532.883 1096.46,533.067 1097.54,533.252 1098.62,533.438 
  1099.7,533.625 1100.78,533.814 1101.86,534.003 1102.94,534.193 1104.02,534.385 1105.1,534.577 1106.18,534.77 1107.25,534.965 1108.33,535.16 1109.41,535.357 
  1110.49,535.555 1111.57,535.753 1112.65,535.953 1113.73,536.154 1114.81,536.355 1115.89,536.558 1116.97,536.762 1118.05,536.967 1119.13,537.173 1120.21,537.38 
  1121.29,537.588 1122.36,537.797 1123.44,538.007 1124.52,538.218 1125.6,538.431 1126.68,538.644 1127.76,538.858 1128.84,539.073 1129.92,539.29 1131,539.507 
  1132.08,539.726 1133.16,539.945 1134.24,540.166 1135.32,540.387 1136.4,540.61 1137.47,540.834 1138.55,541.058 1139.63,541.284 1140.71,541.511 1141.79,541.739 
  1142.87,541.968 1143.95,542.198 1145.03,542.429 1146.11,542.661 1147.19,542.894 1148.27,543.128 1149.35,543.363 1150.43,543.599 1151.51,543.836 1152.58,544.074 
  1153.66,544.314 1154.74,544.554 1155.82,544.796 1156.9,545.038 1157.98,545.281 1159.06,545.526 1160.14,545.772 1161.22,546.018 1162.3,546.266 1163.38,546.514 
  1164.46,546.764 1165.54,547.015 1166.62,547.267 1167.69,547.52 1168.77,547.774 1169.85,548.029 1170.93,548.285 1172.01,548.542 1173.09,548.8 1174.17,549.059 
  1175.25,549.319 1176.33,549.58 1177.41,549.842 1178.49,550.106 1179.57,550.37 1180.65,550.635 1181.73,550.902 1182.81,551.169 1183.88,551.438 1184.96,551.707 
  1186.04,551.978 1187.12,552.249 1188.2,552.522 1189.28,552.796 1190.36,553.071 1191.44,553.346 1192.52,553.623 1193.6,553.901 1194.68,554.18 1195.76,554.46 
  1196.84,554.741 1197.92,555.023 1198.99,555.306 1200.07,555.59 1201.15,555.875 1202.23,556.162 1203.31,556.449 1204.39,556.737 1205.47,557.027 1206.55,557.317 
  1207.63,557.608 1208.71,557.901 1209.79,558.194 1210.87,558.489 1211.95,558.785 1213.03,559.081 1214.1,559.379 1215.18,559.678 1216.26,559.977 1217.34,560.278 
  1218.42,560.58 1219.5,560.883 1220.58,561.187 1221.66,561.492 1222.74,561.798 1223.82,562.105 1224.9,562.413 1225.98,562.722 1227.06,563.032 1228.14,563.344 
  1229.21,563.656 1230.29,563.969 1231.37,564.284 1232.45,564.599 1233.53,564.916 1234.61,565.233 1235.69,565.552 1236.77,565.871 1237.85,566.192 1238.93,566.513 
  1240.01,566.836 1241.09,567.16 1242.17,567.485 1243.25,567.81 1244.32,568.137 1245.4,568.465 1246.48,568.794 1247.56,569.124 1248.64,569.455 1249.72,569.787 
  1250.8,570.121 1251.88,570.455 1252.96,570.79 1254.04,571.126 1255.12,571.463 1256.2,571.802 1257.28,572.141 1258.36,572.482 1259.43,572.823 1260.51,573.166 
  1261.59,573.509 1262.67,573.854 1263.75,574.199 1264.83,574.546 1265.91,574.894 1266.99,575.243 1268.07,575.592 1269.15,575.943 1270.23,576.295 1271.31,576.648 
  1272.39,577.002 1273.47,577.357 1274.54,577.713 1275.62,578.07 1276.7,578.428 1277.78,578.788 1278.86,579.148 1279.94,579.509 1281.02,579.871 1282.1,580.235 
  1283.18,580.599 1284.26,580.965 1285.34,581.331 1286.42,581.699 1287.5,582.067 1288.58,582.437 1289.65,582.808 1290.73,583.179 1291.81,583.552 1292.89,583.926 
  1293.97,584.301 1295.05,584.677 1296.13,585.053 1297.21,585.431 1298.29,585.81 1299.37,586.19 1300.45,586.572 1301.53,586.954 1302.61,587.337 1303.69,587.721 
  1304.76,588.106 1305.84,588.493 1306.92,588.88 1308,589.268 1309.08,589.658 1310.16,590.048 1311.24,590.44 1312.32,590.832 1313.4,591.226 1314.48,591.621 
  1315.56,592.016 1316.64,592.413 1317.72,592.811 1318.8,593.21 1319.87,593.609 1320.95,594.01 1322.03,594.412 1323.11,594.815 1324.19,595.219 1325.27,595.624 
  1326.35,596.03 1327.43,596.438 1328.51,596.846 1329.59,597.255 1330.67,597.665 1331.75,598.077 1332.83,598.489 1333.91,598.902 1334.99,599.317 1336.06,599.732 
  1337.14,600.149 1338.22,600.566 1339.3,600.985 1340.38,601.405 1341.46,601.825 1342.54,602.247 1343.62,602.67 1344.7,603.094 1345.78,603.519 1346.86,603.945 
  1347.94,604.372 1349.02,604.8 1350.1,605.229 1351.17,605.659 1352.25,606.09 1353.33,606.522 1354.41,606.955 1355.49,607.389 1356.57,607.825 1357.65,608.261 
  1358.73,608.698 1359.81,609.137 1360.89,609.576 1361.97,610.017 1363.05,610.458 1364.13,610.901 1365.21,611.345 1366.28,611.789 1367.36,612.235 1368.44,612.682 
  1369.52,613.13 1370.6,613.579 1371.68,614.028 1372.76,614.479 1373.84,614.931 1374.92,615.384 1376,615.838 1377.08,616.294 1378.16,616.75 1379.24,617.207 
  1380.32,617.665 1381.39,618.124 1382.47,618.585 1383.55,619.046 1384.63,619.508 1385.71,619.972 1386.79,620.436 1387.87,620.902 1388.95,621.369 1390.03,621.836 
  1391.11,622.305 1392.19,622.775 1393.27,623.245 1394.35,623.717 1395.43,624.19 1396.5,624.664 1397.58,625.139 1398.66,625.615 1399.74,626.092 1400.82,626.57 
  1401.9,627.049 1402.98,627.529 1404.06,628.01 1405.14,628.492 1406.22,628.976 1407.3,629.46 1408.38,629.945 1409.46,630.432 1410.54,630.919 1411.61,631.407 
  1412.69,631.897 1413.77,632.388 1414.85,632.879 1415.93,633.372 1417.01,633.865 1418.09,634.36 1419.17,634.856 1420.25,635.353 1421.33,635.851 1422.41,636.349 
  1423.49,636.849 1424.57,637.35 1425.65,637.852 1426.72,638.355 1427.8,638.86 1428.88,639.365 1429.96,639.871 1431.04,640.378 1432.12,640.886 1433.2,641.396 
  1434.28,641.906 1435.36,642.418 1436.44,642.93 1437.52,643.443 1438.6,643.958 1439.68,644.474 1440.76,644.99 1441.83,645.508 1442.91,646.027 1443.99,646.546 
  1445.07,647.067 1446.15,647.589 1447.23,648.112 1448.31,648.636 1449.39,649.161 1450.47,649.687 1451.55,650.214 1452.63,650.742 1453.71,651.271 1454.79,651.801 
  1455.87,652.332 1456.94,652.865 1458.02,653.398 1459.1,653.932 1460.18,654.468 1461.26,655.004 1462.34,655.542 1463.42,656.08 1464.5,656.62 1465.58,657.16 
  1466.66,657.702 1467.74,658.244 1468.82,658.788 1469.9,659.333 1470.98,659.879 1472.05,660.426 1473.13,660.974 1474.21,661.522 1475.29,662.072 1476.37,662.623 
  1477.45,663.176 1478.53,663.729 1479.61,664.283 1480.69,664.838 1481.77,665.394 1482.85,665.952 1483.93,666.51 1485.01,667.069 1486.09,667.63 1487.16,668.191 
  1488.24,668.754 1489.32,669.317 1490.4,669.882 1491.48,670.447 1492.56,671.014 1493.64,671.582 1494.72,672.15 1495.8,672.72 1496.88,673.291 1497.96,673.863 
  1499.04,674.436 1500.12,675.01 1501.2,675.585 1502.28,676.161 1503.35,676.738 1504.43,677.316 1505.51,677.895 1506.59,678.475 1507.67,679.057 1508.75,679.639 
  1509.83,680.222 1510.91,680.807 1511.99,681.392 1513.07,681.979 1514.15,682.566 1515.23,683.155 1516.31,683.744 1517.39,684.335 1518.46,684.927 1519.54,685.519 
  1520.62,686.113 1521.7,686.708 1522.78,687.304 1523.86,687.901 1524.94,688.499 1526.02,689.098 1527.1,689.698 1528.18,690.299 1529.26,690.901 1530.34,691.504 
  1531.42,692.108 1532.5,692.713 1533.57,693.32 1534.65,693.927 1535.73,694.535 1536.81,695.145 1537.89,695.755 1538.97,696.367 1540.05,696.979 1541.13,697.593 
  1542.21,698.207 1543.29,698.823 1544.37,699.44 1545.45,700.057 1546.53,700.676 1547.61,701.296 1548.68,701.917 1549.76,702.539 1550.84,703.162 1551.92,703.786 
  1553,704.411 1554.08,705.037 1555.16,705.664 1556.24,706.292 1557.32,706.921 1558.4,707.552 1559.48,708.183 1560.56,708.815 1561.64,709.449 1562.72,710.083 
  1563.79,710.719 1564.87,711.355 1565.95,711.993 1567.03,712.631 1568.11,713.271 1569.19,713.912 1570.27,714.553 1571.35,715.196 1572.43,715.84 1573.51,716.485 
  1574.59,717.131 1575.67,717.778 1576.75,718.426 1577.83,719.075 1578.9,719.725 1579.98,720.376 1581.06,721.028 1582.14,721.681 1583.22,722.335 1584.3,722.991 
  1585.38,723.647 1586.46,724.304 1587.54,724.963 1588.62,725.622 1589.7,726.283 1590.78,726.944 1591.86,727.607 1592.94,728.27 1594.01,728.935 1595.09,729.601 
  1596.17,730.268 1597.25,730.935 1598.33,731.604 1599.41,732.274 1600.49,732.945 1601.57,733.617 1602.65,734.29 1603.73,734.964 1604.81,735.639 1605.89,736.315 
  1606.97,736.992 1608.05,737.671 1609.12,738.35 1610.2,739.03 1611.28,739.711 1612.36,740.394 1613.44,741.077 1614.52,741.762 1615.6,742.447 1616.68,743.134 
  1617.76,743.821 1618.84,744.51 1619.92,745.2 1621,745.89 1622.08,746.582 1623.16,747.275 1624.23,747.969 1625.31,748.664 1626.39,749.36 1627.47,750.057 
  1628.55,750.755 1629.63,751.454 1630.71,752.154 1631.79,752.855 1632.87,753.557 1633.95,754.261 1635.03,754.965 1636.11,755.67 1637.19,756.377 1638.27,757.084 
  1639.34,757.792 1640.42,758.502 1641.5,759.212 1642.58,759.924 1643.66,760.637 1644.74,761.35 1645.82,762.065 1646.9,762.781 1647.98,763.497 1649.06,764.215 
  1650.14,764.934 1651.22,765.654 1652.3,766.375 1653.38,767.097 1654.45,767.82 1655.53,768.544 1656.61,769.269 1657.69,769.996 1658.77,770.723 1659.85,771.451 
  1660.93,772.18 1662.01,772.911 1663.09,773.642 1664.17,774.374 1665.25,775.108 1666.33,775.842 1667.41,776.578 1668.49,777.315 1669.57,778.052 1670.64,778.791 
  1671.72,779.531 1672.8,780.271 1673.88,781.013 1674.96,781.756 1676.04,782.5 1677.12,783.245 1678.2,783.991 1679.28,784.738 1680.36,785.486 1681.44,786.235 
  1682.52,786.985 1683.6,787.736 1684.68,788.489 1685.75,789.242 1686.83,789.996 1687.91,790.752 1688.99,791.508 1690.07,792.266 1691.15,793.024 1692.23,793.784 
  1693.31,794.544 1694.39,795.306 1695.47,796.068 1696.55,796.832 1697.63,797.597 1698.71,798.363 1699.79,799.13 1700.86,799.897 1701.94,800.666 1703.02,801.436 
  1704.1,802.207 1705.18,802.979 1706.26,803.752 1707.34,804.527 1708.42,805.302 1709.5,806.078 1710.58,806.855 1711.66,807.634 1712.74,808.413 1713.82,809.193 
  1714.9,809.975 1715.97,810.757 1717.05,811.541 1718.13,812.325 1719.21,813.111 1720.29,813.897 1721.37,814.685 1722.45,815.474 1723.53,816.264 1724.61,817.054 
  1725.69,817.846 1726.77,818.639 1727.85,819.433 1728.93,820.228 1730.01,821.024 1731.08,821.821 1732.16,822.619 1733.24,823.419 1734.32,824.219 1735.4,825.02 
  1736.48,825.822 1737.56,826.626 1738.64,827.43 1739.72,828.235 1740.8,829.042 1741.88,829.849 1742.96,830.658 1744.04,831.467 1745.12,832.278 1746.19,833.09 
  1747.27,833.902 1748.35,834.716 1749.43,835.531 1750.51,836.347 1751.59,837.164 1752.67,837.982 1753.75,838.801 1754.83,839.621 1755.91,840.442 1756.99,841.264 
  1758.07,842.087 1759.15,842.911 1760.23,843.736 1761.3,844.562 1762.38,845.39 1763.46,846.218 1764.54,847.048 1765.62,847.878 1766.7,848.709 1767.78,849.542 
  1768.86,850.376 1769.94,851.21 1771.02,852.046 1772.1,852.882 1773.18,853.72 1774.26,854.559 1775.34,855.399 1776.41,856.24 1777.49,857.082 1778.57,857.924 
  1779.65,858.768 1780.73,859.613 1781.81,860.46 1782.89,861.307 1783.97,862.155 1785.05,863.004 1786.13,863.854 1787.21,864.706 1788.29,865.558 1789.37,866.411 
  1790.45,867.266 1791.52,868.121 1792.6,868.978 1793.68,869.835 1794.76,870.694 1795.84,871.553 1796.92,872.414 1798,873.276 1799.08,874.138 1800.16,875.002 
  1801.24,875.867 1802.32,876.733 1803.4,877.6 1804.48,878.468 1805.56,879.337 1806.63,880.207 1807.71,881.078 1808.79,881.95 1809.87,882.823 1810.95,883.698 
  1812.03,884.573 1813.11,885.449 1814.19,886.326 1815.27,887.205 1816.35,888.084 1817.43,888.965 1818.51,889.846 1819.59,890.729 1820.67,891.612 1821.75,892.497 
  1822.82,893.383 1823.9,894.27 1824.98,895.157 1826.06,896.046 1827.14,896.936 1828.22,897.827 1829.3,898.719 1830.38,899.612 1831.46,900.506 1832.54,901.401 
  1833.62,902.297 1834.7,903.194 1835.78,904.092 1836.86,904.992 1837.93,905.892 1839.01,906.793 1840.09,907.696 1841.17,908.599 1842.25,909.504 1843.33,910.409 
  1844.41,911.316 1845.49,912.223 1846.57,913.132 1847.65,914.041 1848.73,914.952 1849.81,915.864 1850.89,916.777 1851.97,917.691 1853.04,918.605 1854.12,919.521 
  1855.2,920.438 1856.28,921.356 1857.36,922.275 1858.44,923.195 1859.52,924.117 1860.6,925.039 1861.68,925.962 1862.76,926.886 1863.84,927.812 1864.92,928.738 
  1866,929.665 1867.08,930.594 1868.15,931.523 1869.23,932.454 1870.31,933.385 1871.39,934.318 1872.47,935.252 1873.55,936.186 1874.63,937.122 1875.71,938.059 
  1876.79,938.997 1877.87,939.935 1878.95,940.875 1880.03,941.816 1881.11,942.758 1882.19,943.701 1883.26,944.645 1884.34,945.591 1885.42,946.537 1886.5,947.484 
  1887.58,948.432 1888.66,949.381 1889.74,950.332 1890.82,951.283 1891.9,952.236 1892.98,953.189 1894.06,954.143 1895.14,955.099 1896.22,956.056 1897.3,957.013 
  1898.37,957.972 1899.45,958.932 1900.53,959.892 1901.61,960.854 1902.69,961.817 1903.77,962.781 1904.85,963.746 1905.93,964.712 1907.01,965.679 1908.09,966.647 
  1909.17,967.616 1910.25,968.586 1911.33,969.557 1912.41,970.529 1913.48,971.503 1914.56,972.477 1915.64,973.452 1916.72,974.429 1917.8,975.406 1918.88,976.385 
  1919.96,977.364 1921.04,978.345 1922.12,979.326 1923.2,980.309 1924.28,981.293 1925.36,982.277 1926.44,983.263 1927.52,984.25 1928.59,985.238 1929.67,986.227 
  1930.75,987.217 1931.83,988.208 1932.91,989.2 1933.99,990.193 1935.07,991.187 1936.15,992.182 1937.23,993.178 1938.31,994.176 1939.39,995.174 1940.47,996.173 
  1941.55,997.174 1942.63,998.175 1943.7,999.178 1944.78,1000.18 1945.86,1001.19 1946.94,1002.19 1948.02,1003.2 1949.1,1004.21 1950.18,1005.21 1951.26,1006.22 
  1952.34,1007.23 1953.42,1008.25 1954.5,1009.26 1955.58,1010.27 1956.66,1011.29 1957.74,1012.3 1958.81,1013.32 1959.89,1014.34 1960.97,1015.36 1962.05,1016.38 
  1963.13,1017.4 1964.21,1018.42 1965.29,1019.45 1966.37,1020.47 1967.45,1021.5 1968.53,1022.52 1969.61,1023.55 1970.69,1024.58 1971.77,1025.61 1972.85,1026.64 
  1973.92,1027.67 1975,1028.7 1976.08,1029.74 1977.16,1030.77 1978.24,1031.81 1979.32,1032.84 1980.4,1033.88 1981.48,1034.92 1982.56,1035.96 1983.64,1037 
  1984.72,1038.04 1985.8,1039.09 1986.88,1040.13 1987.96,1041.18 1989.04,1042.22 1990.11,1043.27 1991.19,1044.32 1992.27,1045.37 1993.35,1046.42 1994.43,1047.47 
  1995.51,1048.52 1996.59,1049.58 1997.67,1050.63 1998.75,1051.69 1999.83,1052.74 2000.91,1053.8 2001.99,1054.86 2003.07,1055.92 2004.15,1056.98 2005.22,1058.04 
  2006.3,1059.1 2007.38,1060.17 2008.46,1061.23 2009.54,1062.3 2010.62,1063.37 2011.7,1064.43 2012.78,1065.5 2013.86,1066.57 2014.94,1067.64 2016.02,1068.72 
  2017.1,1069.79 2018.18,1070.87 2019.26,1071.94 2020.33,1073.02 2021.41,1074.09 2022.49,1075.17 2023.57,1076.25 2024.65,1077.33 2025.73,1078.42 2026.81,1079.5 
  2027.89,1080.58 2028.97,1081.67 2030.05,1082.75 2031.13,1083.84 2032.21,1084.93 2033.29,1086.02 2034.37,1087.11 2035.44,1088.2 2036.52,1089.29 2037.6,1090.38 
  2038.68,1091.48 2039.76,1092.57 2040.84,1093.67 2041.92,1094.77 2043,1095.86 2044.08,1096.96 2045.16,1098.06 2046.24,1099.17 2047.32,1100.27 2048.4,1101.37 
  2049.48,1102.48 2050.55,1103.58 2051.63,1104.69 2052.71,1105.8 2053.79,1106.91 2054.87,1108.01 2055.95,1109.13 2057.03,1110.24 2058.11,1111.35 2059.19,1112.46 
  2060.27,1113.58 2061.35,1114.7 2062.43,1115.81 2063.51,1116.93 2064.59,1118.05 2065.66,1119.17 2066.74,1120.29 2067.82,1121.41 2068.9,1122.54 2069.98,1123.66 
  2071.06,1124.79 2072.14,1125.91 2073.22,1127.04 2074.3,1128.17 2075.38,1129.3 2076.46,1130.43 2077.54,1131.56 2078.62,1132.7 2079.7,1133.83 2080.77,1134.96 
  2081.85,1136.1 2082.93,1137.24 2084.01,1138.37 2085.09,1139.51 2086.17,1140.65 2087.25,1141.8 2088.33,1142.94 2089.41,1144.08 2090.49,1145.22 2091.57,1146.37 
  2092.65,1147.52 2093.73,1148.66 2094.81,1149.81 2095.88,1150.96 2096.96,1152.11 2098.04,1153.26 2099.12,1154.42 2100.2,1155.57 2101.28,1156.72 2102.36,1157.88 
  2103.44,1159.04 2104.52,1160.19 2105.6,1161.35 2106.68,1162.51 2107.76,1163.67 2108.84,1164.84 2109.92,1166 2110.99,1167.16 2112.07,1168.33 2113.15,1169.49 
  2114.23,1170.66 2115.31,1171.83 2116.39,1173 2117.47,1174.17 2118.55,1175.34 2119.63,1176.51 2120.71,1177.69 2121.79,1178.86 2122.87,1180.04 2123.95,1181.21 
  2125.03,1182.39 2126.1,1183.57 2127.18,1184.75 2128.26,1185.93 2129.34,1187.11 2130.42,1188.3 2131.5,1189.48 2132.58,1190.66 2133.66,1191.85 2134.74,1193.04 
  2135.82,1194.22 2136.9,1195.41 2137.98,1196.6 2139.06,1197.8 2140.14,1198.99 2141.21,1200.18 2142.29,1201.37 2143.37,1202.57 2144.45,1203.77 2145.53,1204.96 
  2146.61,1206.16 2147.69,1207.36 2148.77,1208.56 2149.85,1209.76 2150.93,1210.97 2152.01,1212.17 2153.09,1213.38 2154.17,1214.58 2155.25,1215.79 2156.33,1217 
  2157.4,1218.2 2158.48,1219.41 2159.56,1220.63 2160.64,1221.84 2161.72,1223.05 2162.8,1224.26 2163.88,1225.48 2164.96,1226.7 2166.04,1227.91 2167.12,1229.13 
  2168.2,1230.35 2169.28,1231.57 2170.36,1232.79 2171.44,1234.02 2172.51,1235.24 2173.59,1236.46 2174.67,1237.69 2175.75,1238.92 2176.83,1240.14 2177.91,1241.37 
  2178.99,1242.6 2180.07,1243.83 2181.15,1245.06 2182.23,1246.3 2183.31,1247.53 2184.39,1248.77 2185.47,1250 2186.55,1251.24 2187.62,1252.48 2188.7,1253.72 
  2189.78,1254.96 2190.86,1256.2 2191.94,1257.44 2193.02,1258.68 2194.1,1259.93 2195.18,1261.17 2196.26,1262.42 2197.34,1263.67 2198.42,1264.92 2199.5,1266.16 
  2200.58,1267.42 2201.66,1268.67 2202.73,1269.92 2203.81,1271.17 2204.89,1272.43 2205.97,1273.68 2207.05,1274.94 2208.13,1276.2 2209.21,1277.46 2210.29,1278.72 
  2211.37,1279.98 2212.45,1281.24 2213.53,1282.5 2214.61,1283.77 2215.69,1285.03 2216.77,1286.3 2217.84,1287.57 2218.92,1288.83 2220,1290.1 2221.08,1291.37 
  2222.16,1292.65 2223.24,1293.92 2224.32,1295.19 2225.4,1296.47 2226.48,1297.74 2227.56,1299.02 2228.64,1300.3 2229.72,1301.58 2230.8,1302.86 2231.88,1304.14 
  2232.95,1305.42 2234.03,1306.7 2235.11,1307.98 2236.19,1309.27 2237.27,1310.56 2238.35,1311.84 2239.43,1313.13 2240.51,1314.42 2241.59,1315.71 2242.67,1317 
  2243.75,1318.29 2244.83,1319.59 2245.91,1320.88 2246.99,1322.18 2248.06,1323.47 2249.14,1324.77 2250.22,1326.07 2251.3,1327.37 2252.38,1328.67 2253.46,1329.97 
  2254.54,1331.27 2255.62,1332.58 2256.7,1333.88 2257.78,1335.19 2258.86,1336.5 2259.94,1337.8 2261.02,1339.11 2262.1,1340.42 2263.17,1341.73 2264.25,1343.05 
  2265.33,1344.36 2266.41,1345.67 2267.49,1346.99 2268.57,1348.3 2269.65,1349.62 2270.73,1350.94 2271.81,1352.26 2272.89,1353.58 2273.97,1354.9 2275.05,1356.22 
  2276.13,1357.55 2277.21,1358.87 2278.28,1360.2 2279.36,1361.52 2280.44,1362.85 2281.52,1364.18 2282.6,1365.51 2283.68,1366.84 2284.76,1368.17 2285.84,1369.51 
  2286.92,1370.84 2288,1372.18 2289.08,1373.51 2290.16,1374.85 2291.24,1376.19 2292.32,1377.53 2293.39,1378.87 2294.47,1380.21 2295.55,1381.55 2296.63,1382.89 
  2297.71,1384.24 
  "></polyline>
<polyline clip-path="url(#clip152)" style="stroke:#e26f46; stroke-linecap:butt; stroke-linejoin:round; stroke-width:4; stroke-opacity:1; fill:none" points="
  462.918,566.008 473.711,566.008 484.504,566.008 495.297,566.008 506.09,566.008 516.883,566.008 527.676,566.008 538.469,566.008 549.262,566.008 560.054,566.008 
  570.847,566.008 581.64,566.008 592.433,566.008 603.226,566.008 614.019,566.008 624.812,566.008 635.605,566.008 646.398,566.008 657.191,566.008 667.984,566.008 
  678.776,566.008 689.569,566.008 700.362,566.008 711.155,566.008 721.948,566.008 732.741,566.008 743.534,566.008 754.327,566.008 765.12,566.008 775.913,566.008 
  786.705,566.008 797.498,566.008 808.291,566.008 819.084,566.008 829.877,566.008 840.67,566.008 851.463,566.008 862.256,566.008 873.049,566.008 883.842,566.008 
  894.635,566.008 905.427,566.008 916.22,566.008 927.013,566.008 937.806,566.008 948.599,566.008 959.392,566.008 970.185,566.008 980.978,566.008 991.771,566.008 
  1002.56,566.008 1013.36,566.008 1024.15,566.008 1034.94,566.008 1045.74,566.008 1056.53,566.008 1067.32,566.008 1078.11,566.008 1088.91,566.008 1099.7,566.008 
  1110.49,566.008 1121.29,566.008 1132.08,566.008 1142.87,566.008 1153.66,566.008 1164.46,566.008 1175.25,566.008 1186.04,566.008 1196.84,566.008 1207.63,566.008 
  1218.42,566.008 1229.21,566.008 1240.01,566.008 1250.8,566.008 1261.59,566.008 1272.39,566.008 1283.18,566.008 1293.97,566.008 1304.76,566.008 1315.56,566.008 
  1326.35,566.008 1337.14,566.008 1347.94,566.008 1358.73,566.008 1369.52,566.008 1380.32,566.008 1391.11,566.008 1401.9,566.008 1412.69,566.008 1423.49,566.008 
  1434.28,566.008 1445.07,566.008 1455.87,566.008 1466.66,566.008 1477.45,566.008 1488.24,566.008 1499.04,566.008 1509.83,566.008 1520.62,566.008 1531.42,566.008 
  1542.21,566.008 1553,566.008 1563.79,566.008 1574.59,566.008 1585.38,566.008 1596.17,566.008 1606.97,566.008 1617.76,566.008 1628.55,566.008 1639.34,566.008 
  1650.14,566.008 1660.93,566.008 1671.72,566.008 1682.52,566.008 1693.31,566.008 1704.1,566.008 1714.9,566.008 1725.69,566.008 1736.48,566.008 1747.27,566.008 
  1758.07,566.008 1768.86,566.008 1779.65,566.008 1790.45,566.008 1801.24,566.008 1812.03,566.008 1822.82,566.008 1833.62,566.008 1844.41,566.008 1855.2,566.008 
  1866,566.008 1876.79,566.008 1887.58,566.008 1898.37,566.008 1909.17,566.008 1919.96,566.008 1930.75,566.008 1941.55,566.008 1952.34,566.008 1963.13,566.008 
  1973.92,566.008 1984.72,566.008 1995.51,566.008 2006.3,566.008 2017.1,566.008 2027.89,566.008 2038.68,566.008 2049.48,566.008 2060.27,566.008 2071.06,566.008 
  2081.85,566.008 2092.65,566.008 2103.44,566.008 2114.23,566.008 2125.03,566.008 2135.82,566.008 2146.61,566.008 2157.4,566.008 2168.2,566.008 2178.99,566.008 
  2189.78,566.008 2200.58,566.008 2211.37,566.008 2222.16,566.008 2232.95,566.008 2243.75,566.008 2254.54,566.008 2265.33,566.008 2276.13,566.008 2286.92,566.008 
  2297.71,566.008 
  "></polyline>
<path clip-path="url(#clip150)" d="
M1956.07 248.629 L2287.93 248.629 L2287.93 93.1086 L1956.07 93.1086  Z
  " fill="#ffffff" fill-rule="evenodd" fill-opacity="1"></path>
<polyline clip-path="url(#clip150)" style="stroke:#000000; stroke-linecap:butt; stroke-linejoin:round; stroke-width:4; stroke-opacity:1; fill:none" points="
  1956.07,248.629 2287.93,248.629 2287.93,93.1086 1956.07,93.1086 1956.07,248.629 
  "></polyline>
<polyline clip-path="url(#clip150)" style="stroke:#009af9; stroke-linecap:butt; stroke-linejoin:round; stroke-width:4; stroke-opacity:1; fill:none" points="
  1977.68,144.949 2107.33,144.949 
  "></polyline>
<path clip-path="url(#clip150)" d="M2145.45 126.21 L2145.45 129.752 L2141.37 129.752 Q2139.08 129.752 2138.18 130.678 Q2137.3 131.604 2137.3 134.011 L2137.3 136.303 L2144.31 136.303 L2144.31 139.613 L2137.3 139.613 L2137.3 162.229 L2133.02 162.229 L2133.02 139.613 L2128.94 139.613 L2128.94 136.303 L2133.02 136.303 L2133.02 134.497 Q2133.02 130.169 2135.03 128.201 Q2137.05 126.21 2141.42 126.21 L2145.45 126.21 Z" fill="#000000" fill-rule="evenodd" fill-opacity="1"></path><path clip-path="url(#clip150)" d="M2159.06 139.289 Q2155.63 139.289 2153.64 141.974 Q2151.65 144.636 2151.65 149.289 Q2151.65 153.942 2153.62 156.627 Q2155.61 159.289 2159.06 159.289 Q2162.46 159.289 2164.45 156.604 Q2166.44 153.918 2166.44 149.289 Q2166.44 144.682 2164.45 141.997 Q2162.46 139.289 2159.06 139.289 M2159.06 135.678 Q2164.61 135.678 2167.79 139.289 Q2170.96 142.9 2170.96 149.289 Q2170.96 155.655 2167.79 159.289 Q2164.61 162.9 2159.06 162.9 Q2153.48 162.9 2150.31 159.289 Q2147.16 155.655 2147.16 149.289 Q2147.16 142.9 2150.31 139.289 Q2153.48 135.678 2159.06 135.678 Z" fill="#000000" fill-rule="evenodd" fill-opacity="1"></path><path clip-path="url(#clip150)" d="M2193.04 140.284 Q2192.32 139.868 2191.47 139.682 Q2190.63 139.474 2189.61 139.474 Q2186 139.474 2184.06 141.835 Q2182.14 144.173 2182.14 148.571 L2182.14 162.229 L2177.86 162.229 L2177.86 136.303 L2182.14 136.303 L2182.14 140.331 Q2183.48 137.969 2185.63 136.835 Q2187.79 135.678 2190.86 135.678 Q2191.3 135.678 2191.84 135.747 Q2192.37 135.794 2193.02 135.909 L2193.04 140.284 Z" fill="#000000" fill-rule="evenodd" fill-opacity="1"></path><path clip-path="url(#clip150)" d="M2215.12 137.298 L2215.12 141.28 Q2213.32 140.284 2211.49 139.798 Q2209.68 139.289 2207.83 139.289 Q2203.69 139.289 2201.4 141.928 Q2199.11 144.544 2199.11 149.289 Q2199.11 154.034 2201.4 156.673 Q2203.69 159.289 2207.83 159.289 Q2209.68 159.289 2211.49 158.803 Q2213.32 158.293 2215.12 157.298 L2215.12 161.233 Q2213.34 162.067 2211.42 162.483 Q2209.52 162.9 2207.37 162.9 Q2201.51 162.9 2198.06 159.219 Q2194.61 155.539 2194.61 149.289 Q2194.61 142.946 2198.09 139.312 Q2201.58 135.678 2207.65 135.678 Q2209.61 135.678 2211.49 136.095 Q2213.36 136.488 2215.12 137.298 Z" fill="#000000" fill-rule="evenodd" fill-opacity="1"></path><path clip-path="url(#clip150)" d="M2244.71 148.201 L2244.71 150.284 L2225.12 150.284 Q2225.4 154.682 2227.76 156.997 Q2230.15 159.289 2234.38 159.289 Q2236.84 159.289 2239.13 158.687 Q2241.44 158.085 2243.71 156.881 L2243.71 160.909 Q2241.42 161.881 2239.01 162.391 Q2236.61 162.9 2234.13 162.9 Q2227.92 162.9 2224.29 159.289 Q2220.68 155.678 2220.68 149.52 Q2220.68 143.155 2224.11 139.428 Q2227.55 135.678 2233.39 135.678 Q2238.62 135.678 2241.65 139.057 Q2244.71 142.414 2244.71 148.201 M2240.45 146.951 Q2240.4 143.456 2238.48 141.372 Q2236.58 139.289 2233.43 139.289 Q2229.87 139.289 2227.72 141.303 Q2225.59 143.317 2225.26 146.974 L2240.45 146.951 Z" fill="#000000" fill-rule="evenodd" fill-opacity="1"></path><polyline clip-path="url(#clip150)" style="stroke:#e26f46; stroke-linecap:butt; stroke-linejoin:round; stroke-width:4; stroke-opacity:1; fill:none" points="
  1977.68,196.789 2107.33,196.789 
  "></polyline>
<path clip-path="url(#clip150)" d="M2142.79 216.476 Q2140.98 221.106 2139.27 222.518 Q2137.55 223.93 2134.68 223.93 L2131.28 223.93 L2131.28 220.365 L2133.78 220.365 Q2135.54 220.365 2136.51 219.532 Q2137.49 218.698 2138.67 215.596 L2139.43 213.652 L2128.94 188.143 L2133.46 188.143 L2141.56 208.421 L2149.66 188.143 L2154.18 188.143 L2142.79 216.476 Z" fill="#000000" fill-rule="evenodd" fill-opacity="1"></path><path clip-path="url(#clip150)" d="M2160.61 192.541 L2190.29 192.541 L2190.29 196.43 L2160.61 196.43 L2160.61 192.541 M2160.61 201.985 L2190.29 201.985 L2190.29 205.921 L2160.61 205.921 L2160.61 201.985 Z" fill="#000000" fill-rule="evenodd" fill-opacity="1"></path><path clip-path="url(#clip150)" d="M2210.38 182.587 Q2206.77 182.587 2204.94 186.152 Q2203.13 189.694 2203.13 196.823 Q2203.13 203.93 2204.94 207.495 Q2206.77 211.036 2210.38 211.036 Q2214.01 211.036 2215.82 207.495 Q2217.65 203.93 2217.65 196.823 Q2217.65 189.694 2215.82 186.152 Q2214.01 182.587 2210.38 182.587 M2210.38 178.884 Q2216.19 178.884 2219.24 183.49 Q2222.32 188.073 2222.32 196.823 Q2222.32 205.55 2219.24 210.157 Q2216.19 214.74 2210.38 214.74 Q2204.57 214.74 2201.49 210.157 Q2198.43 205.55 2198.43 196.823 Q2198.43 188.073 2201.49 183.49 Q2204.57 178.884 2210.38 178.884 Z" fill="#000000" fill-rule="evenodd" fill-opacity="1"></path></svg>